<svg width="80" height="64" viewBox="0 0 80 64" fill="none" xmlns="http://www.w3.org/2000/svg">
<g clip-path="url(#clip0_1_412)">
<path d="M32.6213 62.5L2.12132 32L32.6213 1.5H47.3787L77.8787 32L47.3787 62.5H32.6213Z" stroke="#E2964E" stroke-width="3"/>
<path d="M27.7473 42V26.232C27.6513 26.28 27.4593 26.352 27.1713 26.448C26.8993 26.544 26.5953 26.64 26.2593 26.736C25.9233 26.816 25.6113 26.896 25.3233 26.976C25.0513 27.056 24.8593 27.12 24.7473 27.168V24.696C24.9713 24.616 25.2513 24.504 25.5873 24.36C25.9233 24.216 26.2753 24.056 26.6433 23.88C27.0273 23.688 27.3793 23.48 27.6993 23.256C28.0353 23.032 28.3073 22.8 28.5153 22.56H31.0593V42H27.7473ZM40.1697 42.264C38.9697 42.264 37.9937 41.984 37.2417 41.424C36.4897 40.864 35.9377 40.104 35.5857 39.144C35.2497 38.168 35.0817 37.08 35.0817 35.88V29.064C35.0817 27.8 35.2257 26.664 35.5137 25.656C35.8017 24.632 36.3137 23.824 37.0497 23.232C37.7857 22.64 38.8177 22.344 40.1457 22.344C41.2817 22.344 42.2017 22.536 42.9057 22.92C43.6257 23.288 44.1537 23.832 44.4897 24.552C44.8257 25.272 44.9937 26.16 44.9937 27.216C44.9937 27.264 44.9937 27.32 44.9937 27.384C45.0097 27.432 45.0177 27.48 45.0177 27.528H41.8257C41.8257 26.664 41.7217 26.016 41.5137 25.584C41.3057 25.152 40.8577 24.936 40.1697 24.936C39.7537 24.936 39.4177 25.064 39.1617 25.32C38.9057 25.576 38.7137 26 38.5857 26.592C38.4737 27.168 38.4177 27.944 38.4177 28.92V31.248C38.6417 30.88 38.9777 30.592 39.4257 30.384C39.8897 30.16 40.4257 30.048 41.0337 30.048C42.0897 30.032 42.9217 30.264 43.5297 30.744C44.1377 31.224 44.5697 31.888 44.8257 32.736C45.0977 33.584 45.2337 34.552 45.2337 35.64C45.2337 36.904 45.0737 38.04 44.7537 39.048C44.4337 40.04 43.9057 40.824 43.1697 41.4C42.4337 41.976 41.4337 42.264 40.1697 42.264ZM40.1937 39.696C40.6577 39.696 41.0097 39.552 41.2497 39.264C41.4897 38.976 41.6577 38.576 41.7537 38.064C41.8497 37.552 41.8977 36.952 41.8977 36.264C41.8977 35.56 41.8657 34.936 41.8017 34.392C41.7537 33.832 41.6097 33.392 41.3697 33.072C41.1297 32.736 40.7297 32.568 40.1697 32.568C39.8977 32.568 39.6417 32.624 39.4017 32.736C39.1777 32.832 38.9777 32.96 38.8017 33.12C38.6417 33.28 38.5137 33.44 38.4177 33.6V36.648C38.4177 37.192 38.4657 37.696 38.5617 38.16C38.6737 38.624 38.8577 39 39.1137 39.288C39.3857 39.56 39.7457 39.696 40.1937 39.696ZM50.5493 36.984V33.096H47.1413V30.984H50.5493V27.168H52.8053V30.984H56.2853V33.096H52.8053V36.984H50.5493Z" fill="#AF2710"/>
</g>
<defs>
<clipPath id="clip0_1_412">
<rect width="80" height="64" fill="white"/>
</clipPath>
</defs>
</svg>
