<svg width="126" height="35" viewBox="0 0 126 35" fill="none" xmlns="http://www.w3.org/2000/svg">
<g id="Group 2">
<g id="Subtract">
<path fill-rule="evenodd" clip-rule="evenodd" d="M74.5123 2.4677C74.2875 2.5588 74.1873 2.69545 74.2086 2.86247C74.241 3.11148 75.7371 5.95488 78.6969 11.3927C81.6385 16.794 83.3998 19.9512 83.9808 20.8642C84.1691 21.1497 84.3513 21.2802 84.5274 21.2559C84.6104 21.2454 84.7072 21.2309 84.8186 21.2124C85.7192 20.8711 86.677 20.6957 87.6438 20.6957C87.9538 20.6957 88.2628 20.7137 88.5694 20.7494C88.7686 20.7356 88.9318 20.7202 89.0582 20.7033C89.207 20.685 89.3133 20.4907 89.3771 20.1233C89.4904 19.4896 90.2769 15.9548 91.7366 9.51899C93.0808 3.60141 93.7368 0.507998 93.7044 0.238742C93.672 -0.0305151 92.9472 -0.0720182 91.5301 0.114235C89.7344 0.3511 88.6837 0.527227 88.378 0.642623C88.1381 0.739798 87.9802 1.1862 87.9042 1.97575C87.8223 2.84426 87.7099 3.36354 87.5732 3.53056C87.4821 3.63178 86.6501 3.78362 85.077 3.98607C82.7448 4.29278 81.5332 4.44461 81.3449 4.37781C81.1566 4.311 80.8195 3.63077 80.3276 2.33712C80.285 2.18748 80.197 2.05477 80.0757 1.95737C79.9543 1.85998 79.8057 1.80273 79.6504 1.79355C78.7897 1.80447 77.9309 1.87958 77.0813 2.01826C76.2143 2.09854 75.3551 2.24884 74.5123 2.4677ZM86.3525 11.4352C86.067 12.8564 85.8544 13.7836 85.7148 14.2168C85.2421 13.4311 84.8251 12.6132 84.4667 11.7692C83.8573 10.4553 83.5334 9.64552 83.4949 9.33982C83.4808 9.27479 83.4808 9.20747 83.4949 9.14244C83.5374 8.98756 83.8229 8.87216 84.4788 8.78714C85.1347 8.70211 85.6085 8.64745 85.897 8.62923C86.4618 8.57457 86.7442 8.62923 86.7655 8.79625C86.7989 9.04526 86.6561 9.9168 86.3525 11.4352Z" fill="black"/>
<path fill-rule="evenodd" clip-rule="evenodd" d="M93.8626 33.5273C94.328 32.95 94.7082 32.3094 94.9905 31.6241C95.3873 30.6607 95.5823 29.6287 95.564 28.5898C95.5799 27.5561 95.3836 26.5299 94.9868 25.5722C94.7631 25.0323 94.4783 24.5204 94.1386 24.0458C94.1357 20.1517 94.0467 17.1051 93.8714 14.9062L93.8562 14.7088C93.8562 14.5479 93.9959 14.4385 94.2996 14.3839C94.6032 14.3292 96.0427 14.2685 98.6087 14.2138C100.35 14.1753 101.738 14.1561 102.772 14.1561C104.916 14.1561 106.664 14.642 108.016 15.6137C109.551 16.707 110.318 18.2861 110.318 20.351C110.318 21.7257 110.121 22.8229 109.726 23.6429C109.202 24.6052 108.452 25.4255 107.54 26.0328C107.321 26.1846 107.215 26.3364 107.215 26.4579L108.946 30.0078C110.094 32.3907 110.668 33.7066 110.668 33.9556C110.668 34.0224 110.573 34.068 110.385 34.0983C109.489 34.1754 108.59 34.2038 107.692 34.1833C106.854 34.1981 106.015 34.1697 105.18 34.0983C105.06 34.0897 104.942 34.0652 104.828 34.0254C104.737 33.9513 104.669 33.8536 104.631 33.743L104.581 33.6135C104.444 33.252 104.253 32.7507 104.023 32.1032C103.657 31.1618 103.083 29.772 102.301 27.9338C102.131 27.5663 101.743 27.3629 101.132 27.3264C101.412 27.3477 100.929 27.3568 99.6776 27.3568C99.5379 27.3568 99.4651 27.5967 99.4651 28.0765C99.4651 28.7172 99.5258 29.6738 99.6412 30.9462C99.7566 32.2186 99.8204 33.1752 99.8204 33.8159C99.8204 33.9769 99.7778 34.071 99.6928 34.1014L99.298 34.1287C98.7423 34.1651 97.8768 34.1864 96.7016 34.1864C95.8909 34.2099 95.0794 34.1815 94.2722 34.1014C93.9989 34.0437 93.8623 33.8979 93.8623 33.661C93.8623 33.6174 93.8624 33.5728 93.8626 33.5273ZM103.616 18.8843C104.367 19.3252 104.742 20.1208 104.743 21.271C104.742 22.909 103.709 23.7299 101.645 23.734C101.041 23.7357 100.437 23.6931 99.8386 23.6064C99.5379 23.5578 99.3891 23.5123 99.3891 23.4637C99.3891 23.3787 99.3866 23.2747 99.3835 23.1523C99.3792 22.9772 99.374 22.7646 99.374 22.5162V21.5566C99.3508 20.6316 99.3782 19.7061 99.4559 18.7841C99.5136 18.5108 99.9874 18.3741 100.883 18.3741C102.119 18.3741 103.033 18.5442 103.616 18.8843Z" fill="black"/>
<path d="M81.3005 23.874C80.2913 25.24 79.7391 26.8915 79.7391 28.5974C79.7391 30.3687 80.3344 32.0814 81.4187 33.4767C81.4194 33.4855 81.4201 33.4943 81.4208 33.5031L81.4329 33.6519C81.4511 33.904 81.3145 34.0315 81.0169 34.0315C80.4678 33.9694 79.9238 33.8679 79.3892 33.7278C78.4903 33.5254 77.9376 33.3837 77.7311 33.3027C75.8298 34.0439 73.8106 34.4368 71.7701 34.4627C68.709 34.4627 66.1966 33.492 64.2329 31.5505C62.2691 29.609 61.2984 27.1908 61.3207 24.2957C61.3207 21.3076 62.2621 18.8286 64.1448 16.8588C66.0843 14.8343 68.6058 13.816 71.7093 13.8038C73.1668 13.7953 74.6117 14.0749 75.9607 14.6268C77.3001 15.1538 78.4722 16.0331 79.3528 17.1716C79.4768 17.307 79.5637 17.4723 79.6048 17.6514C79.6048 17.953 79.1615 18.6292 78.2747 19.6799C77.388 20.7306 76.8151 21.256 76.5559 21.256C76.2988 21.1002 76.0681 20.9044 75.8727 20.676C75.4326 20.2473 74.9323 19.8852 74.3877 19.601C73.613 19.211 72.7558 19.0131 71.8885 19.024C71.2176 18.9945 70.549 19.1209 69.9351 19.3933C69.3213 19.6657 68.779 20.0767 68.3507 20.594C67.5195 21.6224 67.0881 22.9166 67.136 24.238C67.136 25.7746 67.5571 26.9893 68.3993 27.8821C69.2415 28.7749 70.4754 29.2365 72.1011 29.2669C73.2651 29.2355 74.4137 28.9916 75.49 28.5472C75.4597 28.2435 75.3716 27.4448 75.2228 26.1724C75.1078 25.3848 75.0429 24.5906 75.0285 23.7947C75.0285 23.6155 75.0922 23.5092 75.2228 23.4698C75.2998 23.4478 75.3798 23.4386 75.4597 23.4424C75.7482 23.4424 76.1794 23.4698 76.7594 23.5214C77.3394 23.573 77.7797 23.5973 78.0743 23.5973C78.3689 23.5973 78.8699 23.576 79.5016 23.5335C80.1332 23.491 80.613 23.4698 80.9288 23.4698C81.1604 23.4698 81.2843 23.6037 81.3005 23.874Z" fill="black"/>
<path fill-rule="evenodd" clip-rule="evenodd" d="M38.114 24.1925C38.114 27.1341 37.1787 29.5989 35.3081 31.5869C33.397 33.6114 30.9797 34.6237 28.0564 34.6237C25.133 34.6237 22.7219 33.6053 20.8229 31.5687C18.9401 29.5786 17.9997 27.1229 18.0018 24.2016C18.0038 21.2803 18.9442 18.8154 20.8229 16.8072C22.7401 14.7624 25.1512 13.7401 28.0564 13.7401C29.4094 13.7086 30.7535 13.9659 31.9992 14.4948C33.245 15.0236 34.3637 15.8119 35.2808 16.8072C37.1696 18.8175 38.114 21.2792 38.114 24.1925ZM32.7694 24.1652C32.8034 22.8458 32.3455 21.561 31.4849 20.5606C31.0639 20.0682 30.5403 19.6739 29.9508 19.4052C29.3614 19.1365 28.7203 19 28.0725 19.0052C27.4247 19.0104 26.7859 19.1572 26.2009 19.4354C25.6158 19.7135 25.0986 20.1162 24.6856 20.6152C23.8353 21.6149 23.3617 22.8806 23.3467 24.1929C23.3317 25.5051 23.7764 26.7813 24.6036 27.8001C25.0355 28.2832 25.5659 28.6682 26.159 28.9291C26.7522 29.1901 27.3944 29.3209 28.0423 29.3128C28.6903 29.3048 29.329 29.158 29.9155 28.8824C30.502 28.6068 31.0226 28.2088 31.4423 27.7151C32.3107 26.738 32.7838 25.4723 32.7694 24.1652Z" fill="black"/>
<path fill-rule="evenodd" clip-rule="evenodd" d="M16.3507 30.2998C16.629 29.5599 16.7587 28.7724 16.7324 27.9823C16.7403 27.1706 16.5693 26.367 16.2313 25.6289C15.9192 24.8811 15.3766 24.2524 14.6826 23.8342C14.4366 23.6975 14.3151 23.5943 14.3151 23.5305C14.5077 23.3702 14.6827 23.19 14.8375 22.993C15.2054 22.5871 15.5263 22.1409 15.794 21.6629C16.1101 21.1261 16.2856 20.5182 16.3042 19.8955C16.3042 17.7638 15.5754 16.2504 14.1178 15.3556C13.0144 14.6875 11.3078 14.311 8.99783 14.226C8.48968 14.2057 6.73547 14.1956 3.73518 14.1956C1.86455 14.1956 0.777404 14.2138 0.470694 14.2533C0.163984 14.2928 0.0273295 14.399 0.0273295 14.5782V14.7756C0.102235 16.3223 0.153861 17.4823 0.182203 18.2557C0.295575 21.2722 0.352262 23.327 0.352262 24.4203C0.352262 25.4406 0.293551 26.9721 0.176131 29.0148C0.0587107 31.0575 0 32.585 0 33.5973C0 33.8362 0.137665 33.9809 0.412995 34.0315C1.06893 34.1732 3.13289 34.2441 6.60489 34.2441H7.60397C8.0472 34.2593 8.38442 34.2593 8.62128 34.2593C11.7147 34.2593 13.8779 33.6043 15.1108 32.2945C15.6511 31.7175 16.0725 31.0397 16.3507 30.2998ZM10.3444 18.9963C10.5664 19.291 10.6778 19.6545 10.6589 20.0231H10.665C10.667 21.1831 9.65579 21.7631 7.6313 21.7631C6.5401 21.7631 5.94288 21.7206 5.83963 21.6356C5.67869 21.5202 5.59973 20.9948 5.59973 20.0504C5.59973 19.8712 5.59973 19.5979 5.64832 19.2366C5.69691 18.8752 5.69691 18.5776 5.69691 18.4257C5.69691 18.2739 6.201 18.198 7.21527 18.198C7.96448 18.1666 8.71446 18.2381 9.44423 18.4106C9.8037 18.4942 10.1223 18.7015 10.3444 18.9963ZM10.0242 26.1937C10.7308 26.4933 11.0841 27.0683 11.0841 27.9186L11.0901 27.9277C11.0901 28.7476 10.745 29.2912 10.0546 29.5584C9.35759 29.7535 8.63359 29.8345 7.91068 29.7983C6.67777 29.7983 6.00058 29.7406 5.87911 29.6222C5.75764 29.5037 5.69387 28.8417 5.69387 27.7758C5.69387 26.71 5.74853 26.136 5.85178 26.0449C5.95503 25.9538 6.61096 25.9083 7.82565 25.9083C8.56981 25.8681 9.31501 25.9649 10.0242 26.1937Z" fill="black"/>
<path d="M59.3893 34.0315C59.687 34.0315 59.8266 33.904 59.8054 33.6519L59.7993 33.5031C59.611 31.0737 59.5169 29.2517 59.5169 28.037C59.5169 27.5845 59.5412 26.8982 59.5958 25.9872C59.6505 25.0721 59.6778 24.3889 59.6778 23.9374C59.6778 23.6246 59.5533 23.4698 59.3074 23.4698C58.9885 23.4698 58.5148 23.491 57.8801 23.5335C57.2454 23.576 56.7504 23.5973 56.4528 23.5973C56.1552 23.5973 55.7179 23.573 55.1379 23.5214C54.5579 23.4698 54.1237 23.4424 53.8382 23.4424C53.7573 23.4389 53.6763 23.4481 53.5983 23.4698C53.4708 23.5092 53.407 23.6155 53.407 23.7947C53.4217 24.5905 53.4856 25.3846 53.5983 26.1724C53.7471 27.4448 53.8382 28.2435 53.8655 28.5472C52.7892 28.9916 51.6406 29.2355 50.4765 29.2669C48.8833 29.2669 47.6493 28.8053 46.7748 27.8821C45.9326 26.9893 45.5115 25.7746 45.5115 24.238C45.4622 22.9164 45.8938 21.6217 46.7262 20.594C47.1543 20.0765 47.6966 19.6654 48.3105 19.393C48.9244 19.1206 49.593 18.9943 50.264 19.024C51.1303 19.013 51.9865 19.2109 52.7602 19.601C53.3062 19.8843 53.8076 20.2465 54.2482 20.676C54.4428 20.9052 54.6736 21.1011 54.9314 21.256C55.1885 21.256 55.7605 20.7306 56.6472 19.6799C57.5339 18.6292 57.9773 17.953 57.9773 17.6514C57.9361 17.4723 57.8493 17.307 57.7252 17.1716C56.8451 16.0338 55.6743 15.1546 54.3362 14.6268C52.9872 14.0749 51.5423 13.7953 50.0848 13.8038C46.9813 13.816 44.4598 14.8343 42.5203 16.8588C40.6355 18.8286 39.6931 21.3076 39.6931 24.2957C39.6749 27.1908 40.6466 29.609 42.6084 31.5505C44.5701 33.492 47.0825 34.4627 50.1455 34.4627C52.1861 34.4368 54.2053 34.0439 56.1066 33.3027C56.3131 33.3837 56.8648 33.5254 57.7617 33.7278C58.2963 33.8676 58.8403 33.9691 59.3893 34.0315Z" fill="black"/>
<path d="M125.696 18.863C125.899 18.863 126 18.7689 126 18.5806C125.99 18.2349 125.96 17.8901 125.909 17.5481C125.857 17.2041 125.827 16.8573 125.818 16.5096C125.818 16.3031 125.827 15.9478 125.845 15.4498C125.872 14.9973 125.872 14.642 125.872 14.3899C125.863 14.229 125.845 14.1379 125.818 14.1136C125.713 14.0779 125.603 14.0655 125.493 14.0772L123.643 14.2199C121.368 14.398 119.807 14.4871 118.961 14.4871C116.705 14.5214 114.448 14.42 112.204 14.1834H112.007C111.849 14.1834 111.733 14.5357 111.67 15.2433C111.63 15.6866 111.6 16.13 111.569 16.5733C111.551 16.713 111.466 17.1139 111.317 17.7729C111.226 18.1312 111.16 18.4955 111.12 18.863C111.12 18.9572 111.193 19.0058 111.345 19.0058C112.462 19.0058 113.962 18.9106 115.845 18.7203C115.92 21.2671 115.958 22.908 115.958 23.6429C115.955 24.7543 115.908 26.4225 115.815 28.6474C115.722 30.8723 115.675 32.5405 115.675 33.6519C115.672 33.7068 115.679 33.7618 115.698 33.8137C115.716 33.8657 115.744 33.9135 115.781 33.9544C115.817 33.9954 115.862 34.0286 115.911 34.0523C115.961 34.076 116.015 34.0895 116.07 34.0922C116.918 34.1844 117.771 34.222 118.624 34.2046C119.452 34.2166 120.281 34.1791 121.105 34.0922C121.239 34.0849 121.372 34.0604 121.5 34.0194C121.585 33.9728 121.627 33.8604 121.627 33.6823C121.627 32.5708 121.583 30.8976 121.493 28.6626C121.404 26.4275 121.36 24.7543 121.36 23.6429C121.36 22.6984 121.387 21.0373 121.445 18.6505C123.921 18.7922 125.338 18.863 125.696 18.863Z" fill="black"/>
</g>
<path id="Vector" d="M90.6944 28.5952C90.7015 28.9962 90.6265 29.3945 90.4738 29.7663C90.3211 30.1382 90.0938 30.476 89.8055 30.7596C89.5275 31.0472 89.1919 31.2749 88.8198 31.4285C88.4477 31.582 88.0472 31.6579 87.6438 31.6515C87.2414 31.6598 86.8418 31.5847 86.4709 31.431C86.1 31.2773 85.7661 31.0486 85.4911 30.7596C84.9245 30.1821 84.6079 29.411 84.6079 28.6086C84.6079 27.8062 84.9245 27.0351 85.4911 26.4576C85.7666 26.1693 86.1005 25.9409 86.4713 25.7873C86.8421 25.6336 87.2415 25.5582 87.6438 25.5657C88.0473 25.5587 88.4479 25.6345 88.8201 25.788C89.1923 25.9416 89.5279 26.1696 89.8055 26.4576C90.0912 26.7376 90.317 27.071 90.4697 27.4381C90.6223 27.8052 90.6987 28.1986 90.6944 28.5952Z" fill="black"/>
</g>
</svg>
