<svg width="158" height="32" viewBox="0 0 158 32" fill="none" xmlns="http://www.w3.org/2000/svg">
<g id="Google_Play_2022_logo" clip-path="url(#clip0_1_251)">
<g id="Capa 2">
<g id="Capa 1">
<path id="Vector" d="M154.45 13.0453L151.542 20.4499H151.455L148.422 13.0453H145.679L150.224 23.3962L147.627 29.1532H150.292L157.299 13.0453H154.45ZM133.903 6.90063H131.364V23.9777H133.903V6.90063ZM124.347 6.90063H118.241V23.9777H120.8V17.5132H124.357C125.074 17.5378 125.789 17.4196 126.46 17.1656C127.131 16.9117 127.745 16.5269 128.266 16.0337C128.787 15.5404 129.205 14.9486 129.496 14.2925C129.786 13.6364 129.944 12.9292 129.959 12.2118C129.944 11.4931 129.786 10.7846 129.495 10.1273C129.204 9.47007 128.785 8.87717 128.263 8.38306C127.741 7.88894 127.126 7.50345 126.454 7.24897C125.782 6.99449 125.065 6.87608 124.347 6.90063ZM124.415 15.129H120.8V9.31391H124.425C125.196 9.31391 125.935 9.62024 126.48 10.1655C127.026 10.7108 127.332 11.4503 127.332 12.2215C127.332 12.9926 127.026 13.7322 126.48 14.2774C125.935 14.8227 125.196 15.129 124.425 15.129H124.415ZM140.164 12.677C139.234 12.6236 138.309 12.8428 137.501 13.3076C136.694 13.7724 136.04 14.4627 135.619 15.2938L137.887 16.263C138.111 15.8521 138.451 15.5158 138.864 15.2954C139.278 15.075 139.746 14.9801 140.213 15.0224C140.533 14.9903 140.856 15.0219 141.164 15.1152C141.472 15.2086 141.759 15.3619 142.007 15.5663C142.256 15.7708 142.462 16.0223 142.613 16.3066C142.764 16.5908 142.857 16.9021 142.888 17.2225V17.3969C142.075 16.9574 141.166 16.7276 140.242 16.7282C137.809 16.7282 135.328 18.0657 135.328 20.605C135.328 22.8922 137.315 24.3654 139.563 24.3654C140.203 24.406 140.842 24.2725 141.412 23.9789C141.982 23.6854 142.462 23.2429 142.8 22.6984H142.897V24.0165H145.378V17.4454C145.378 14.4118 143.11 12.7255 140.184 12.7255L140.164 12.677ZM139.864 22.0394C139.03 22.0394 137.867 21.6129 137.867 20.5856C137.867 19.2675 139.311 18.7635 140.571 18.7635C141.384 18.7418 142.187 18.9393 142.897 19.3353C142.804 20.0765 142.445 20.7587 141.887 21.2558C141.329 21.7528 140.611 22.0312 139.864 22.0394ZM47.9652 24.346C45.5535 24.354 43.2358 23.4114 41.5142 21.7225C39.7926 20.0335 38.8058 17.7343 38.7676 15.3229C38.8058 12.9115 39.7926 10.6122 41.5142 8.92331C43.2358 7.23438 45.5535 6.29178 47.9652 6.29973C49.1144 6.28059 50.2558 6.49105 51.3226 6.91876C52.3894 7.34647 53.36 7.98284 54.1777 8.79055L52.4235 10.5254C51.2336 9.35952 49.631 8.7115 47.9652 8.7227C46.225 8.7227 44.5561 9.41399 43.3256 10.6445C42.0951 11.875 41.4038 13.5439 41.4038 15.2841C41.4038 17.0243 42.0951 18.6932 43.3256 19.9237C44.5561 21.1542 46.225 21.8455 47.9652 21.8455C48.8121 21.8803 49.6568 21.7369 50.4448 21.4247C51.2328 21.1126 51.9465 20.6385 52.5398 20.0331C53.3286 19.1827 53.8038 18.0887 53.8869 16.9317H47.9652V14.5378H56.3002C56.3911 15.0463 56.4333 15.5623 56.4262 16.0788C56.5099 18.2243 55.7397 20.3154 54.2843 21.894C53.4626 22.724 52.4751 23.3714 51.3862 23.7939C50.2974 24.2164 49.1317 24.4046 47.9652 24.346ZM69.3164 18.5309C69.3482 19.3061 69.223 20.0798 68.9483 20.8055C68.6736 21.5311 68.255 22.1937 67.7177 22.7535C67.1805 23.3133 66.5356 23.7587 65.8218 24.0629C65.1081 24.3672 64.3402 24.524 63.5643 24.524C62.7884 24.524 62.0205 24.3672 61.3067 24.0629C60.593 23.7587 59.9481 23.3133 59.4108 22.7535C58.8735 22.1937 58.455 21.5311 58.1802 20.8055C57.9055 20.0798 57.7803 19.3061 57.8121 18.5309C57.7803 17.7557 57.9055 16.982 58.1802 16.2563C58.455 15.5307 58.8735 14.8681 59.4108 14.3083C59.9481 13.7485 60.593 13.3031 61.3067 12.9989C62.0205 12.6946 62.7884 12.5378 63.5643 12.5378C64.3402 12.5378 65.1081 12.6946 65.8218 12.9989C66.5356 13.3031 67.1805 13.7485 67.7177 14.3083C68.255 14.8681 68.6736 15.5307 68.9483 16.2563C69.223 16.982 69.3482 17.7557 69.3164 18.5309ZM66.7965 18.5309C66.8393 18.0807 66.7875 17.6265 66.6445 17.1974C66.5015 16.7684 66.2705 16.3739 65.9662 16.0394C65.6619 15.7048 65.291 15.4375 64.8774 15.2546C64.4638 15.0717 64.0165 14.9772 63.5643 14.9772C63.112 14.9772 62.6648 15.0717 62.2512 15.2546C61.8375 15.4375 61.4667 15.7048 61.1624 16.0394C60.8581 16.3739 60.6271 16.7684 60.4841 17.1974C60.3411 17.6265 60.2893 18.0807 60.332 18.5309C60.2893 18.9811 60.3411 19.4353 60.4841 19.8644C60.6271 20.2934 60.8581 20.6879 61.1624 21.0224C61.4667 21.357 61.8375 21.6243 62.2512 21.8072C62.6648 21.9901 63.112 22.0846 63.5643 22.0846C64.0165 22.0846 64.4638 21.9901 64.8774 21.8072C65.291 21.6243 65.6619 21.357 65.9662 21.0224C66.2705 20.6879 66.5015 20.2934 66.6445 19.8644C66.7875 19.4353 66.8393 18.9811 66.7965 18.5309ZM82.2066 18.5309C82.2066 20.0552 81.6011 21.517 80.5233 22.5948C79.4455 23.6727 77.9836 24.2782 76.4593 24.2782C74.9351 24.2782 73.4732 23.6727 72.3954 22.5948C71.3176 21.517 70.712 20.0552 70.712 18.5309C70.712 17.0066 71.3176 15.5448 72.3954 14.4669C73.4732 13.3891 74.9351 12.7836 76.4593 12.7836C77.9836 12.7836 79.4455 13.3891 80.5233 14.4669C81.6011 15.5448 82.2066 17.0066 82.2066 18.5309ZM79.6964 18.5309C79.7392 18.0807 79.6874 17.6265 79.5444 17.1974C79.4014 16.7684 79.1704 16.3739 78.8661 16.0394C78.5618 15.7048 78.1909 15.4375 77.7773 15.2546C77.3637 15.0717 76.9164 14.9772 76.4642 14.9772C76.0119 14.9772 75.5647 15.0717 75.1511 15.2546C74.7374 15.4375 74.3666 15.7048 74.0623 16.0394C73.758 16.3739 73.527 16.7684 73.384 17.1974C73.241 17.6265 73.1892 18.0807 73.2319 18.5309C73.1892 18.9811 73.241 19.4353 73.384 19.8644C73.527 20.2934 73.758 20.6879 74.0623 21.0224C74.3666 21.357 74.7374 21.6243 75.1511 21.8072C75.5647 21.9901 76.0119 22.0846 76.4642 22.0846C76.9164 22.0846 77.3637 21.9901 77.7773 21.8072C78.1909 21.6243 78.5618 21.357 78.8661 21.0224C79.1704 20.6879 79.4014 20.2934 79.5444 19.8644C79.6874 19.4353 79.7392 18.9811 79.6964 18.5309ZM94.7867 13.0744V23.5125C94.7867 27.7963 92.2377 29.5603 89.2332 29.5603C88.1319 29.5695 87.0526 29.2523 86.1314 28.6485C85.2103 28.0448 84.4887 27.1817 84.0578 26.1681L86.2578 25.1989C86.486 25.7906 86.8835 26.302 87.4006 26.6691C87.9177 27.0363 88.5315 27.2429 89.1654 27.2633C91.1038 27.2633 92.2862 26.0712 92.2862 23.8517V23.0182H92.1893C91.8091 23.4424 91.3426 23.7804 90.821 24.0094C90.2995 24.2384 89.735 24.3532 89.1654 24.346C87.6231 24.346 86.144 23.7334 85.0535 22.6428C83.9629 21.5523 83.3503 20.0732 83.3503 18.5309C83.3503 16.9886 83.9629 15.5095 85.0535 14.419C86.144 13.3284 87.6231 12.7158 89.1654 12.7158C89.7387 12.7031 90.3082 12.8124 90.8362 13.0363C91.3641 13.2601 91.8386 13.5936 92.2281 14.0145H92.325V13.0453H94.7867V13.0744ZM92.5285 18.56C92.5641 18.1213 92.5112 17.68 92.373 17.2622C92.2348 16.8444 92.014 16.4586 91.7238 16.1278C91.4337 15.7969 91.08 15.5278 90.6838 15.3362C90.2876 15.1447 89.8569 15.0347 89.4174 15.0127C88.9693 15.0276 88.5286 15.1316 88.1212 15.3188C87.7138 15.506 87.3477 15.7725 87.0445 16.1028C86.7413 16.433 86.507 16.8205 86.3553 17.2424C86.2036 17.6643 86.1375 18.1122 86.1609 18.56C86.1401 19.0047 86.2084 19.4491 86.3616 19.8671C86.5149 20.2851 86.7501 20.6683 87.0534 20.9942C87.3567 21.3201 87.7221 21.5821 88.128 21.7649C88.534 21.9477 88.9723 22.0476 89.4174 22.0587C89.8543 22.0418 90.2833 21.9368 90.6786 21.7501C91.0739 21.5633 91.4275 21.2986 91.718 20.9719C92.0085 20.6451 92.2301 20.2631 92.3694 19.8486C92.5086 19.4342 92.5628 18.9959 92.5285 18.56ZM99.2741 6.92001V23.9874H96.7154V6.92001H99.2741ZM109.354 20.4499L111.35 21.768C110.817 22.5635 110.096 23.215 109.25 23.6648C108.405 24.1145 107.462 24.3485 106.504 24.346C105.742 24.3569 104.986 24.2132 104.282 23.9234C103.577 23.6337 102.939 23.204 102.405 22.6603C101.872 22.1167 101.454 21.4704 101.177 20.7606C100.9 20.0508 100.771 19.2923 100.796 18.5309C100.682 17.2219 101.054 15.917 101.841 14.8648C102.628 13.8127 103.775 13.0869 105.062 12.8257C106.35 12.5646 107.689 12.7865 108.823 13.449C109.958 14.1115 110.809 15.1683 111.214 16.4181L111.476 17.0868L103.723 20.2948C103.964 20.8379 104.363 21.2961 104.867 21.6105C105.372 21.9249 105.959 22.081 106.553 22.0587C107.118 22.0499 107.671 21.8976 108.161 21.6162C108.651 21.3348 109.061 20.9334 109.354 20.4499ZM103.238 18.3564L108.452 16.2048C108.25 15.8098 107.937 15.4827 107.551 15.2639C107.165 15.0452 106.724 14.9443 106.281 14.974C105.858 14.9925 105.443 15.0951 105.06 15.2759C104.677 15.4567 104.333 15.712 104.05 16.0269C103.767 16.3418 103.549 16.7099 103.41 17.1099C103.27 17.5099 103.212 17.9337 103.238 18.3564Z" fill="#3C4043"/>
<path id="Vector_2" d="M13.1227 14.8092L0.116211 28.436C0.262257 28.9537 0.524722 29.431 0.883543 29.8317C1.24236 30.2323 1.68804 30.5456 2.1865 30.7476C2.68496 30.9496 3.22301 31.035 3.75952 30.9972C4.29603 30.9594 4.81679 30.7994 5.28199 30.5295L19.9167 22.1944L13.1227 14.8092Z" fill="#EA4335"/>
<path id="Vector_3" d="M26.2746 12.4929L19.9458 8.86809L12.8223 15.1194L19.9749 22.1751L26.2552 18.5891C26.8116 18.2977 27.2777 17.8597 27.6028 17.3224C27.928 16.7851 28.0999 16.169 28.0999 15.541C28.0999 14.9129 27.928 14.2968 27.6028 13.7595C27.2777 13.2222 26.8116 12.7842 26.2552 12.4929H26.2746Z" fill="#FBBC04"/>
<path id="Vector_4" d="M0.116341 2.578C0.0377192 2.86865 -0.00139994 3.16857 3.82556e-05 3.46966V27.5443C0.000824637 27.8453 0.0399061 28.1449 0.116341 28.436L13.5687 15.1581L0.116341 2.578Z" fill="#4285F4"/>
<path id="Vector_5" d="M13.2196 15.507L19.9458 8.86807L5.33045 0.494282C4.78061 0.17226 4.15526 0.00170775 3.51806 -4.51232e-06C2.74851 -0.00152954 1.99956 0.248619 1.38539 0.71231C0.771219 1.176 0.325512 1.8278 0.116211 2.56835L13.2196 15.507Z" fill="#34A853"/>
</g>
</g>
</g>
<defs>
<clipPath id="clip0_1_251">
<rect width="157.28" height="31.014" fill="white"/>
</clipPath>
</defs>
</svg>
