<svg width="116" height="22" viewBox="0 0 116 22" fill="none" xmlns="http://www.w3.org/2000/svg">
<g id="IRI_logo 2" clip-path="url(#clip0_1_418)">
<path id="Vector" fill-rule="evenodd" clip-rule="evenodd" d="M11.36 0.693115V11.0101L20.535 0.693115H22.3046V11.0101L31.4797 0.693115H33.2492V21.328H22.3046L22.3046 11.0101L13.1295 21.328H11.36V11.0101L2.18483 21.328H0.415283V0.693115H11.36ZM54.7228 0.693115L47.6663 19.9277V0.693115H41.9773V21.328H52.8423L59.8989 2.09339V21.328H65.5886V0.693115H54.7228ZM80.4883 0.693115H68.7344V21.3271H74.7716V15.6891H80.5946C86.124 15.6891 89.3296 12.8282 89.3296 8.02407V7.94122C89.3296 3.21991 86.0176 0.693115 80.4883 0.693115ZM80.1938 11.1074H74.7716V5.30276H80.2206C82.3837 5.30276 83.2388 6.49682 83.2388 8.05194V8.10779C83.2388 10.0241 82.3034 11.1074 80.1938 11.1074ZM97.663 19.9277L104.72 0.693115H115.586V21.328H109.896V2.09339L102.839 21.328H91.9745V0.693115H97.663V19.9277Z" fill="#150B08"/>
</g>
<defs>
<clipPath id="clip0_1_418">
<rect width="116" height="20.8205" fill="white" transform="translate(0 0.600098)"/>
</clipPath>
</defs>
</svg>
