<svg width="242" height="210" viewBox="0 0 242 210" fill="none" xmlns="http://www.w3.org/2000/svg">
<g id="Logo_MP">
<path id="Vector" d="M59.3224 124.234C59.3686 123.916 59.5797 123.643 59.8287 123.44C60.0778 123.238 60.373 123.095 60.6501 122.932C61.1597 122.634 61.9679 122.161 62.2911 121.632C61.9662 121.481 61.4945 121.584 61.1366 121.581C61.0805 121.581 61.0162 121.576 60.9799 121.533C60.9503 121.497 60.9486 121.448 60.9503 121.4C61.0443 114.626 60.9371 107.851 60.9371 101.076C60.942 100.318 60.9503 99.5623 60.9618 98.8048C61.0789 90.8882 60.8381 82.97 60.9618 75.0534C60.9948 72.9191 61.1531 70.7847 61.1713 68.652C61.1762 68.0739 61.3445 67.6062 61.6529 67.1204C63.2791 64.5644 64.8888 61.9986 66.4623 59.4113C66.8878 58.7114 67.1814 57.9275 67.5129 57.1732C67.6019 56.969 67.6085 56.7269 67.5046 56.3827C67.1467 56.6693 66.7377 56.9097 66.4392 57.249C64.7767 59.1346 63.0696 60.9874 61.511 62.9571C57.4405 68.097 53.7708 73.5103 50.7559 79.3419C49.283 82.191 47.962 85.1093 47.3105 88.2696C47.0763 89.4076 46.9328 90.5835 46.9212 91.7446C46.8272 100.936 46.7646 110.129 46.7233 119.32C46.72 120.074 46.5436 120.596 45.9119 121.061C44.7178 121.935 43.6045 122.922 42.4302 123.824C42.1514 124.038 41.7638 124.224 41.4241 124.228C38.6994 124.256 35.9748 124.238 33.2485 124.229C33.1841 124.229 33.1198 124.193 32.9615 124.144C33.0126 123.465 33.0505 122.76 33.1198 122.059C33.2748 120.504 33.6245 118.913 33.8736 117.347C34.1259 115.759 34.1588 114.198 34.1638 112.596C34.1753 109.146 34.172 105.695 34.1638 102.245C34.1457 95.3446 34.0979 88.4442 34.0715 81.5438C34.0533 76.6443 34.0451 71.7448 34.0649 66.8453C34.0649 66.511 34.0649 66.1784 34.0649 65.6514C33.8158 65.8918 33.6888 65.9824 33.6014 66.1042C29.8228 71.3644 26.1234 76.6772 22.8529 82.2717C22.3152 83.1923 21.8253 84.1426 21.3157 85.0796C20.3789 86.7957 19.8412 88.6287 19.6614 90.5736C19.3481 93.9497 19.2788 97.3489 19.447 100.735C19.607 103.958 20.1447 107.164 20.181 110.407C20.2156 113.394 19.8148 116.346 19.0017 119.218C18.5927 120.664 17.9165 121.968 16.8378 123.04C16.2968 123.579 15.7015 124.032 14.7795 124.241C15.1803 122.118 15.9389 120.18 16.4238 117.91C16.1006 118.274 15.9191 118.445 15.7756 118.643C14.8883 119.87 13.9928 121.094 13.1335 122.34C12.7838 122.848 12.4292 123.385 12.2346 123.961C11.9097 124.921 11.2533 125.512 10.4055 125.96C9.61055 126.38 8.76445 126.701 7.89031 126.915C7.35099 127.047 5.90125 127.515 5.45923 126.988C5.3075 126.808 5.30584 126.548 5.32728 126.314C5.5252 124.15 6.78691 122.171 7.38231 120.106C7.80619 118.632 7.77813 117.194 7.77648 115.68C7.77483 112.245 7.7765 108.81 7.79629 105.374C7.80784 103.52 7.826 101.664 7.85238 99.8094C7.89362 96.8861 8.03048 93.9514 8.64402 91.0809C8.90791 89.8474 9.33178 88.6287 9.83977 87.4709C11.7563 83.1116 14.1791 79.0207 16.7388 75.0155C18.6652 71.9984 20.6955 69.0456 22.7539 66.1158C25.4291 62.3098 28.063 58.4808 30.2847 54.3883C31.5662 52.0267 32.851 49.6387 33.3309 46.9691C33.9098 43.7462 34.1919 40.4903 33.7416 37.213C33.5354 35.7143 32.7933 34.5648 31.4788 33.8204C30.6475 33.351 29.7783 32.9492 28.7079 32.4074C28.7607 33.0447 28.8283 33.4367 28.82 33.8253C28.792 35.2318 28.853 36.653 28.665 38.0381C28.3995 39.9847 27.3027 41.5756 25.914 42.898C25.1339 43.6408 24.9804 44.3259 25.2278 45.3272C25.6995 47.2343 25.8909 49.1875 25.8694 51.1604C25.8513 52.8287 25.3812 54.2286 24.0354 55.3435C21.8863 57.1238 19.8099 58.9914 17.7021 60.821C17.5734 60.9314 17.4283 61.022 17.2287 61.1652C17.0704 60.8655 16.9153 60.6102 16.7949 60.3402C13.2143 52.2918 9.63033 44.2452 6.06617 36.1886C4.91825 33.5931 4.53064 30.9005 5.38333 28.1387C5.6868 27.1588 6.14202 26.22 6.58073 25.2863C7.41528 23.5109 8.28942 21.7553 9.14377 19.9899C9.23118 19.8087 9.29551 19.6177 9.39612 19.3706C6.34489 17.3878 3.35305 15.3654 0 13.8157C0.318317 13.3875 0.776814 13.371 1.18419 13.3118C3.1947 13.0203 5.20853 12.7386 7.22399 12.485C8.55663 12.317 9.89588 12.2034 11.3159 12.0568C13.1764 8.03679 15.0054 4.08262 16.8939 0C17.4926 0.55994 17.989 1.02272 18.4871 1.48714C18.8401 1.81652 19.2013 2.13601 19.546 2.47362C20.2074 3.12249 21.0683 3.67585 21.4542 4.46141C21.8435 5.25027 21.7643 6.27298 21.8781 7.19358C22.0166 8.31347 22.1453 9.435 22.2921 10.6817C22.9864 10.0032 23.0277 9.27031 22.998 8.55886C22.9386 7.15077 23.3988 5.84973 23.7171 4.51411C23.8193 4.08428 24.0354 3.87677 24.4807 3.82572C27.4363 3.48316 30.3918 3.3267 33.349 3.80924C33.7399 3.87347 34.1209 3.99699 34.5069 4.09416C34.5184 4.16992 34.53 4.24566 34.5431 4.32307C32.7339 5.17451 30.9262 6.02595 29.1169 6.87739L29.145 7.07501C29.4963 7.07501 29.8492 7.07995 30.2005 7.07501C33.547 7.01737 36.9 6.97291 40.2118 7.53779C41.561 7.76835 42.8953 8.14878 44.1916 8.59344C45.1911 8.93599 45.9251 9.66391 46.283 10.7146C45.643 11.2696 45.046 10.8678 44.4802 10.7459C43.8848 10.6191 43.3158 10.377 42.7122 10.1794C42.7122 10.3128 42.6874 10.3935 42.7155 10.4248C45.0954 13.0828 45.9646 16.3552 46.5304 19.7494C47.1456 23.4401 47.0812 27.1653 47.0631 30.8791C46.9971 43.4102 47.1587 55.9413 47.0631 68.4725C47.0598 68.8842 46.7167 69.2943 46.7167 69.8591C46.9526 69.6599 47.1142 69.566 47.2198 69.431C49.9758 65.9083 52.4497 62.3724 54.7357 58.8086C56.987 55.299 58.2965 51.4585 59.1443 47.4237C59.6968 44.7969 60.3202 42.18 60.4357 39.489C60.4835 38.3625 60.3549 37.2261 60.2955 36.0964C60.2576 35.3915 60.1965 34.6867 60.1322 33.7809C61.1498 34.3639 61.9761 34.8382 62.9542 35.3981C62.8552 35.0457 62.8206 34.8316 62.7365 34.6405C62.0685 33.1304 61.3741 31.63 60.7243 30.1116C60.5676 29.746 60.4604 29.3195 60.4785 28.9275C60.6171 25.9582 60.7441 22.9888 60.8744 20.0195C60.9965 17.2462 61.0311 14.4481 61.2702 11.6813C61.2735 11.6336 61.2785 11.5858 61.3016 11.5447C61.323 11.5068 61.3593 11.4788 61.3956 11.4524C61.8887 11.0951 62.4693 10.8974 63.0284 10.6734C63.6947 10.4067 64.3478 10.1069 65.0075 9.82366C66.327 9.25713 67.6465 8.6906 68.961 8.11255C69.7625 7.76012 70.5657 7.40439 71.4052 7.15077C71.994 6.97291 73.2525 6.49037 73.7027 7.12277C73.7027 7.95115 73.7044 8.63296 73.7027 9.31477C73.5955 39.6108 73.8133 71.3545 73.7027 101.651C73.6846 106.413 73.6994 111.174 73.7027 115.937C73.7027 117.416 73.5394 118.851 73.8792 120.3C73.9617 120.654 74.0672 121.02 74.313 121.288C74.6379 121.642 75.1426 121.754 75.6143 121.85C76.18 121.963 76.7457 122.079 77.3114 122.192C77.5539 122.242 77.2042 122.431 77.1415 122.495C76.9865 122.653 76.8496 122.829 76.7111 123.002C76.4455 123.335 76.1684 123.679 75.7776 123.87C75.5351 123.989 75.2663 124.038 74.9991 124.078C73.3811 124.318 71.7054 124.289 70.0726 124.236C70.0627 124.236 70.0544 124.236 70.0445 124.236C66.4672 124.236 62.8915 124.231 59.3158 124.236L59.3224 124.234ZM10.3461 30.3866C10.6347 31.0503 11.1279 31.3138 11.6854 31.5378C12.8317 31.9973 13.9598 32.4996 15.0961 32.9854C15.2528 33.053 15.4062 33.1386 15.5711 33.1798C16.1187 33.3197 16.3315 33.1435 16.343 32.5819C16.3496 32.2427 16.3397 31.8985 16.4007 31.5691C16.6102 30.4229 16.8774 29.2865 17.0687 28.137C17.3491 26.444 17.5602 24.7411 17.3623 23.0185C17.2897 22.3828 16.9796 22.1983 16.4848 22.587C15.7064 23.1964 14.9279 23.837 14.2781 24.5764C12.7327 26.337 11.5188 28.333 10.3461 30.3866Z" fill="white"/>
<path id="Vector_2" d="M133.655 101.021C132.588 100.916 130.98 100.865 129.949 101.176C131.349 101.645 133.272 102.222 134.595 102.879C139.167 105.152 141.979 107.11 144.244 111.565C144.509 112.087 144.767 112.614 145.019 113.142C146.048 115.291 147.161 117.502 148.959 119.12C149.244 119.377 149.545 119.618 149.86 119.837C153.031 122.047 157.4 122.231 160.941 120.856C161.256 120.734 161.565 120.598 161.865 120.445C163.331 119.699 164.675 118.71 166.061 117.813C166.341 117.632 166.584 117.375 166.739 117.093C165.027 116.622 162.861 117.278 161.08 117.228C159.142 117.174 157.051 116.56 155.972 114.952C155.215 113.824 155.085 112.398 155.058 111.039C154.948 105.241 159.693 101.074 163.877 97.8016C165.963 96.1695 168.116 94.5407 170.61 93.6448C171.325 93.3879 172.119 93.2117 172.772 92.8099C173.407 92.4196 173.628 91.8086 173.879 91.1333C174.509 89.4436 175.063 87.7276 175.538 85.9868C176.466 82.5778 177.08 79.088 177.39 75.5703C177.875 70.0747 177.619 64.5362 176.862 59.0768C176.204 54.3288 174.923 49.6253 169.731 48.6652C165.145 47.817 160.361 47.7973 155.837 46.7597C151.54 45.7749 147.494 43.7723 144.046 41.0401C141.733 39.2071 139.652 37.0085 138.359 34.3587C137.028 31.6331 135.906 27.9359 136.507 24.9023C136.881 23.01 137.942 21.3714 139.047 19.8266C139.471 19.2337 141.379 15.8181 142.317 16.21C142.834 16.4258 143.498 18.8302 143.742 19.3737C145.651 23.6128 147.73 27.814 150.501 31.5672C155.165 37.8847 161.748 42.7677 169.15 45.406C179.969 49.2613 192.905 48.0674 201.994 40.6811C208.265 35.5856 215.649 28.3805 213.053 19.4791C212.731 18.3741 212.27 17.3217 211.705 16.3204C210.828 14.7657 209.698 13.3428 208.45 12.0615C206.372 9.92884 203.914 8.1288 201.145 7.02539C197.225 5.4625 192.793 5.69305 188.744 6.62684C184.837 7.52603 181.15 9.46607 178.53 12.5424C177.911 13.2687 177.34 14.0757 176.931 14.9321C176.296 16.2562 176.663 17.4913 177.791 18.4449C178.497 19.041 179.339 19.3325 180.228 19.5022C182.292 19.8941 184.358 19.8167 186.392 19.3655C187.594 19.0987 188.76 18.654 189.925 18.2407C190.266 18.1204 190.546 17.8289 190.909 17.5753C188.821 16.8639 187.273 15.8955 187.411 13.3774C187.484 12.0451 188.175 10.581 189.473 10.2681C190.213 10.0902 190.987 10.3257 191.689 10.6189C193.131 11.2233 194.452 12.0813 195.691 13.0332C198.061 14.853 200.187 17.0763 201.465 19.7756C202.647 22.2722 203.056 25.0719 203.093 27.8321C203.127 30.5429 202.806 33.2932 201.788 35.808C200.771 38.3211 199.009 40.5922 196.632 41.9031C191.127 44.9383 183.156 43.0378 177.596 40.9956C171.774 38.8563 166.427 35.3007 162.449 30.5215C161.378 29.2353 160.41 27.865 159.562 26.4224C157.71 23.2686 156.427 19.82 155.182 16.3813C154.582 14.7213 153.925 12.9706 152.545 11.8672C150.264 10.0458 146.548 10.4081 143.861 10.8379C138.339 11.7223 133.945 14.9634 130.366 19.1794C128.392 21.5064 126.886 24.3407 126.659 27.3809C126.429 30.449 127.538 33.5386 129.421 35.9743C132.609 40.0948 137.828 42.127 142.484 44.1066C146.99 46.0236 151.517 47.8961 156.036 49.7834C159.564 51.2574 162.952 52.8186 165.231 56.063C167.065 58.6716 167.826 62.0395 167.944 65.2229C168.338 75.8355 167.679 79.5821 166.155 86.0313C165.627 88.2694 164.502 89.4651 163.935 91.7411C164.326 92.0227 164.723 92.3076 165.248 92.6864C162.175 93.4555 157.123 95.1204 154.771 97.2877C154.854 96.6191 155.97 95.0694 155.972 94.5078C156.026 81.3574 156.063 68.2071 156.129 55.0567C156.134 54.3519 155.891 54.0357 155.276 53.7442C151.448 51.9293 147.635 50.0798 143.831 48.2123C141.31 46.9755 138.197 47.9257 135.616 48.5977C133.22 49.2202 130.899 50.1325 128.722 51.3134C127.874 51.7728 126.806 52.1632 126.293 53.0179C125.816 53.8117 125.689 54.7603 125.425 55.6348C124.971 57.1351 124.574 58.6502 124.231 60.1785C122.648 67.2321 122.375 74.4537 123.116 81.6325C123.578 86.1038 124.404 90.5504 125.679 94.8635C125.735 95.0496 125.836 95.2226 125.936 95.4515C127.076 95.188 128.171 94.9344 129.266 94.6807C129.293 94.7417 129.319 94.801 129.345 94.8619C128.252 95.4712 127.574 95.771 126.41 96.4215C126.698 97.0391 126.954 97.5842 127.203 98.1178C128.6 98.1178 129.761 98.2611 131.056 98.4455C133.719 98.8226 134.77 99.8141 136.739 101.68L133.655 101.025V101.021ZM140.95 95.048C138.771 94.4765 136.515 94.1999 134.214 93.7799C134.597 93.0833 134.93 92.4064 135.331 91.7707C135.629 91.2964 135.644 90.8369 135.563 90.3C134.584 83.7784 133.469 77.1167 133.686 70.5012C133.79 67.3359 134.133 64.1821 134.585 61.0497C134.811 59.4819 135.065 57.919 135.329 56.3561C135.458 55.5953 135.59 54.8344 135.722 54.0719C135.824 53.4823 135.829 52.7824 136.51 52.5666C138.105 52.061 139.698 51.5538 141.293 51.0482C142.675 50.6085 143.652 51.6954 144.874 52.2719C144.874 52.6671 144.874 53.0739 144.874 53.479C144.831 65.6923 144.94 80.1799 144.874 92.3916C144.867 93.5164 144.895 94.572 145.398 95.5849C145.641 96.0724 145.817 96.5944 146.099 97.2877C143.79 96.4907 143.134 95.6228 140.95 95.048Z" fill="white"/>
<path id="Vector_3" d="M118.79 5.66198C118.486 6.29273 118.058 7.96433 117.677 8.4271C117.398 8.76471 116.009 9.12044 116.049 9.55686C116.067 9.76272 116.049 9.97023 116.049 10.1761V102.329C111.81 103.992 108.068 106.932 105.152 110.763C104.998 110.964 104.319 111.12 104.08 111.207C103.857 111.286 104.199 109.636 104.22 109.575C104.728 108.146 106.11 106.596 106.473 105.111C106.834 103.635 106.913 102.532 106.922 100.974C106.926 99.8439 106.915 98.7125 106.912 97.5828C106.908 94.9724 106.912 93.3964 106.913 90.7844C106.918 85.325 106.931 79.8656 106.93 74.4078C106.93 72.8087 106.928 71.2129 106.922 69.6137C106.918 68.6602 106.333 67.8664 107.011 67.1829C107.271 66.9211 107.459 66.5901 107.627 66.2129C106.686 66.5703 105.663 66.7943 104.876 67.4629C104.433 67.84 104.103 68.3407 103.745 68.7985C103.369 69.2778 102.991 69.757 102.617 70.2379C100.58 72.84 98.5414 75.4421 96.5045 78.0441C95.4852 79.3452 94.4676 80.6462 93.4483 81.9473C92.9387 82.5978 92.4291 83.2483 91.9194 83.8988C91.6935 84.187 91.479 84.4703 91.2135 84.7173C90.9876 84.9298 90.7698 85.2608 90.6973 85.5655C90.6758 85.656 90.6742 85.7515 90.6742 85.8454C90.6742 87.4445 90.6742 89.0437 90.6742 90.6428V119.748L94.9591 116.856C94.9723 117.555 95.0185 118.149 94.9739 118.735C94.9591 118.928 94.7496 119.15 94.5715 119.284C92.815 120.616 91.0486 122.661 89.2756 123.972C89.0925 124.107 88.8435 124.228 88.6241 124.229C86.2491 124.247 83.8741 124.241 81.3902 124.241C81.4578 123.907 81.5254 123.572 81.5914 123.236C81.6706 122.839 81.7514 122.442 81.8306 122.046C81.8701 121.85 81.9081 121.655 81.9477 121.461L82.007 121.169C82.0153 121.125 82.0252 121.079 82.0335 121.034C82.0434 120.988 82.0631 120.936 82.0631 120.888C82.0631 120.88 82.0664 120.871 82.0631 120.863C82.0598 120.855 82.0532 120.85 82.0466 120.845C82.007 120.814 81.9675 120.782 81.9213 120.764C81.8916 120.753 81.8635 120.746 81.8339 120.741C81.4562 120.661 81.0785 120.58 80.6992 120.497C80.648 120.488 80.5953 120.476 80.5425 120.465C80.5161 120.458 80.488 120.453 80.46 120.446C80.4287 120.44 80.4204 120.446 80.4221 120.412C80.427 120.31 80.4534 120.204 80.4617 120.102C80.4798 119.896 80.4831 119.691 80.4831 119.485C80.4831 114.641 80.4897 109.798 80.4831 104.954C80.4765 100.084 80.488 95.2145 80.4831 90.3463C80.4831 88.9086 80.4699 87.4709 80.4765 86.0315C80.4864 83.1462 80.493 80.2608 80.4979 77.3755C80.5029 74.3732 80.4847 71.3726 80.4847 68.3703C80.4847 65.3681 80.4864 62.2094 80.4847 59.128C80.4814 56.0072 80.4897 52.8864 80.4847 49.7639C80.4798 46.6397 80.4897 43.5139 80.4847 40.3882C80.4798 37.297 80.4864 34.2058 80.4847 31.1146C80.4831 28.0942 80.4633 25.0754 80.4633 22.0551C80.4633 19.1434 80.4781 16.2333 80.4847 13.3216C80.4864 12.4521 80.4386 11.599 80.3808 10.7294C80.371 10.5878 80.3627 10.4396 80.4155 10.3062C80.4683 10.1777 80.5738 10.0789 80.6777 9.98669C81.7827 9.02656 83.1566 8.45674 84.5288 7.99067C85.9901 7.49496 87.4696 7.07007 89.015 6.94491C89.6203 6.8955 90.2289 6.88891 90.8342 6.9235C90.9991 28.0892 91.0139 50.2629 91.0667 71.4006C91.1624 71.455 91.2581 71.5093 91.3521 71.5637C91.4956 71.343 91.6192 71.1042 91.7875 70.9016C95.9784 65.8292 100.178 60.7634 104.363 55.6861C105.086 54.8099 105.747 53.8827 106.428 52.9736C108.668 49.9895 109.414 46.5228 109.679 42.9046C109.692 42.7201 109.658 42.5324 109.475 42.2952C108.995 43.01 108.584 43.7692 108.175 44.5251C108.043 44.7244 107.345 46.2593 106.966 46.6743V12.3384L103.733 13.9853C103.653 13.1553 103.582 12.4406 103.516 11.7489C106.257 10.237 105.912 10.6537 106.86 8.29699C110.7 7.13759 112.42 5.65869 118.785 5.65869L118.79 5.66198Z" fill="white"/>
<path id="Vector_4" d="M238.047 5.92065C234.713 13.2509 232.47 20.5713 232.164 28.3973C232.312 27.8242 232.442 27.2478 232.611 26.6813C233.222 24.6045 233.829 22.5278 234.468 20.4593C235.136 18.297 236.67 17.1228 238.858 16.7341C239.863 16.5546 240.864 16.3257 242 16.4788C241.837 16.8543 241.711 17.1639 241.571 17.4686C239.369 22.233 237.62 27.144 236.673 32.3218C236.282 34.4595 236.102 36.612 236.104 38.7875C236.115 57.3726 236.104 75.9593 236.104 94.5444C236.104 102.667 236.096 110.789 236.122 118.912C236.125 119.687 235.941 120.178 235.235 120.568C233.849 121.334 232.495 122.161 231.159 123.012C229.426 124.117 227.564 124.519 225.426 124.141C225.133 123.18 225.296 122.176 225.299 121.046C225.299 112.089 225.347 103.13 225.342 94.1722C225.337 85.1687 225.319 76.1668 225.301 67.1633C225.283 58.1598 225.265 49.1579 225.261 40.1544C225.261 35.6584 225.293 31.1624 225.309 26.6664C225.317 24.4185 225.321 22.1705 225.314 19.9225C225.311 18.7993 225.304 17.6745 225.296 16.5513C225.293 16.1033 225.532 15.3985 225.119 15.0642C224.954 14.9308 224.743 14.8682 224.54 14.8056C223.821 14.5866 223.114 14.3247 222.423 14.025C222.38 14.0069 222.334 13.9838 222.312 13.9426C222.284 13.8883 222.309 13.8224 222.334 13.7681C222.72 12.8969 223.226 12.0372 223.905 11.3603C224.681 10.5879 225.609 10.168 226.592 9.7266C229.183 8.56225 231.786 7.40614 234.44 6.39166C235.459 6.00135 236.663 6.08864 238.047 5.9256V5.92065Z" fill="white"/>
<path id="Vector_5" d="M217.173 116.178C217.091 116.772 214.204 117.067 213.726 117.548C214.582 118.045 215.943 117.426 216.922 117.65C218.013 117.9 217.956 118.811 218.295 119.915C215.069 121.43 211.801 122.861 208.499 124.203C208.447 124.224 207.891 122.602 207.643 122.475C207.551 122.428 207.442 122.429 207.337 122.433C200.052 122.63 192.826 124.267 185.543 124.145C183.761 124.114 182.119 122.834 180.461 122.316C180.448 122.24 180.436 122.164 180.423 122.088C181.609 121.599 183.11 121.11 184.357 120.596V119.44C184.357 100.129 184.334 80.8175 184.357 61.5062C184.357 60.6877 183.882 60.1014 183.108 59.7901C182 59.3438 182.058 58.3013 181.78 57.3412C182.061 57.2226 182.298 57.1024 182.549 57.02C186.385 55.7734 190.265 54.6782 194.266 54.1001C195.592 53.9091 196.943 53.8893 198.283 53.8218C198.638 53.8037 198.998 53.9008 199.562 53.9717C199.133 54.3406 198.889 54.5678 198.625 54.7753C197.569 55.607 196.51 56.4354 195.447 57.2555C195.11 57.5141 194.856 57.7661 194.855 58.2601C194.845 62.2917 194.94 66.3118 195.648 70.2956C195.955 72.0215 196.596 73.5794 197.685 74.9744C199.436 77.2174 202.324 79.2315 204.734 80.7796C206.286 81.7776 208.776 82.3491 210.648 82.1498C212.567 81.9456 214.488 81.7743 216.398 81.5158C217.114 81.4186 217.569 81.4977 218.049 82.1383C218.704 83.0128 218.826 83.8132 218.6 84.8804C217.491 90.1191 216.873 95.4583 216.724 100.809C216.652 103.447 216.693 106.089 216.846 108.724C216.983 111.082 217.491 113.842 217.17 116.178H217.173ZM208.63 118.755C206.664 118.867 207.175 113.946 207.175 113.05C207.175 110.252 207.173 107.454 207.168 104.656C207.158 99.06 207.142 93.4639 207.129 87.8695C207.129 87.4709 207.129 87.0724 207.129 86.5915C206.388 86.6524 204.98 86.7133 204.399 86.7446C201.383 86.9093 197.612 86.4317 195.254 84.3632C194.324 83.5464 193.444 82.6719 192.542 81.8221C192.328 81.6212 192.118 81.4153 191.765 81.0744C191.808 81.5471 191.815 81.8139 191.859 82.0741C192.232 84.1936 193.271 86.0167 194.488 87.7377C195.369 88.9811 195.072 90.567 195.084 92.0229C195.099 93.8196 195.114 95.618 195.128 97.4148C195.158 101.01 195.188 104.605 195.217 108.2C195.234 110.224 195.252 112.248 195.203 114.272C195.176 115.361 195.137 116.451 195.057 117.536C195.011 118.18 194.696 118.915 194.754 119.472C199.306 119.723 204.078 119.015 208.63 118.757V118.755Z" fill="white"/>
<path id="Vector_6" d="M182.625 149.693C182.663 152.824 182.745 157.203 182.625 160.331C182.524 162.939 181.203 164.993 179.079 166.264C177.748 167.063 176.207 166.892 174.728 166.699C174.192 166.628 173.667 166.455 173.006 166.296C173.31 167.784 173.651 169.398 174.646 170.587C175.619 171.752 176.885 172.649 178.244 173.31C179.9 174.117 181.698 174.588 183.501 174.96C183.557 174.971 183.618 174.985 183.659 175.024C183.781 175.138 183.667 175.337 183.56 175.466C182.425 176.846 182.63 178.647 182.622 180.306C182.612 182.447 182.598 184.591 182.608 186.733L182.59 186.71C182.584 192.354 182.58 197.997 182.597 203.639C182.597 203.838 182.597 204.042 182.518 204.225C182.397 204.507 182.119 204.681 181.855 204.838C181.691 204.933 181.52 205.034 181.33 205.037C181.211 205.04 181.094 205.004 180.981 204.968C179.748 204.582 178.518 204.199 177.286 203.813C177.073 203.746 176.856 203.678 176.671 203.553C176.189 203.227 176.026 202.591 176.018 202.01C176.014 201.761 176.039 201.514 176.047 201.266C176.194 197.025 176.01 192.735 175.998 188.487C175.988 184.851 175.968 181.213 175.963 177.577C175.873 176.753 175.609 175.955 175.027 175.383C174.199 174.571 173.016 174.26 172.155 173.465C171.136 172.524 170.301 171.483 169.699 170.227C169.516 169.845 168.192 168.432 167.809 169.267C167.732 169.436 167.76 169.632 167.803 169.812C168.043 170.823 168.675 171.691 169.313 172.511C169.688 172.99 170.075 173.476 170.262 174.054C170.423 174.553 170.423 175.087 170.422 175.609C170.422 179.93 170.395 184.25 170.382 188.57C170.371 192.817 170.187 197.107 170.334 201.348C170.342 201.597 170.366 201.844 170.362 202.092C170.356 202.674 170.191 203.309 169.709 203.635C169.524 203.761 169.308 203.828 169.094 203.896C168.296 204.144 167.497 204.395 166.699 204.645L166.452 202.158C166.452 202.158 165.305 202.731 165.106 203.873C165.033 204.286 164.948 204.711 164.867 205.086C164.748 205.05 164.634 204.984 164.527 204.92C164.263 204.764 163.984 204.589 163.862 204.307C163.785 204.125 163.783 203.92 163.785 203.721C163.81 195.101 163.785 186.48 163.785 177.86V177.598C163.785 175.909 163.956 174.112 163.767 172.435C163.529 172.452 163.257 172.626 163.041 172.765C161.774 173.58 160.526 174.431 159.241 175.212C158.578 175.615 157.849 175.897 157.08 176.269C157.346 176.454 157.793 176.648 158.118 176.872C158.133 177.111 158.114 177.382 158.118 177.653C158.2 184.848 157.94 191.215 158.052 198.408V198.479C158.052 199.495 158.017 200.241 158.052 201.266C158.062 201.514 158.057 201.761 158.052 202.01C158.045 202.591 157.831 203.227 157.349 203.553C157.164 203.678 156.947 203.746 156.734 203.813C155.502 204.199 154.272 204.582 153.04 204.968C152.926 205.004 152.809 205.04 152.69 205.037C152.5 205.034 152.329 204.933 152.165 204.838C151.903 204.681 151.623 204.507 151.502 204.225C151.423 204.042 151.423 203.838 151.423 203.639C151.445 196.188 151.431 188.739 151.427 181.287C151.417 180.195 151.402 179.102 151.384 178.008C151.375 177.518 151.366 177.02 151.219 176.552C151.074 176.085 150.768 175.643 150.32 175.449C151.991 174.624 153.788 174.084 155.489 173.318C157.537 172.397 159.389 171.124 160.306 169.018C160.626 168.283 160.925 167.539 161.276 166.698C160.285 166.818 159.47 166.964 158.652 167.004C156.398 167.113 154.597 166.131 153.191 164.275C152.911 163.903 152.66 163.499 152.41 163.099C151.839 162.19 151.382 161.223 151.42 160.093C151.506 157.617 151.427 155.55 151.42 153.071C151.42 152.541 151.816 152.179 152.207 151.839C153.904 150.364 155.571 148.85 157.262 147.366C157.489 147.167 157.786 146.851 158.24 146.594C158.24 149.977 158.202 153.359 158.184 156.742C158.177 158.056 158.179 159.418 158.723 160.616C159.249 161.773 160.303 162.651 161.504 163.051C162.02 163.224 162.881 163.456 163.422 163.269C163.856 163.119 163.77 163.071 163.777 162.569C163.782 162.09 163.778 161.609 163.78 161.129C163.783 158.904 163.786 156.68 163.79 154.455C163.791 153.32 163.795 152.187 163.796 151.052C163.798 150.214 163.732 149.316 164.618 148.893C165.701 148.373 166.727 147.696 167.837 147.258C168.561 146.973 169.477 146.582 170.387 146.447C170.227 146.47 170.385 153.845 170.385 154.532C170.38 157.412 170.375 160.293 170.372 163.173C170.372 163.697 170.557 164.753 171.321 164.366C172.724 163.654 174.058 162.812 174.946 161.388C175.168 161.029 175.299 160.574 175.376 160.145C175.919 157.123 176.023 152.824 175.948 149.754C175.935 149.175 175.932 149.175 175.246 148.121C175.497 147.189 176.064 146.526 176.964 146.548C178.535 146.582 180.11 146.653 181.68 146.55C182.038 146.526 182.455 146.582 182.721 146.332C183.087 145.985 183.418 146.008 183.769 146.219C184.154 146.451 184.507 146.746 185.01 147.113C184.525 147.338 184.187 147.518 183.837 147.656C182.948 148.009 182.61 148.643 182.623 149.693H182.625Z" fill="white"/>
<path id="Vector_7" d="M62.7315 150.476C62.1328 150.245 61.4615 150.138 60.8398 149.97C61.1861 148.893 61.5324 147.816 61.8788 146.739C61.8986 146.676 61.9233 146.607 61.9794 146.574C62.0239 146.548 62.0767 146.548 62.1278 146.548C68.6162 146.64 75.1096 146.54 81.5963 146.54C82.7855 146.535 83.4221 147.365 84.1082 148.228C85.2083 149.613 86.3084 150.999 87.4101 152.384C87.4579 152.445 87.5074 152.51 87.5206 152.585C87.5371 152.689 87.4827 152.788 87.4283 152.879C85.2199 156.538 81.3687 157.839 77.6578 159.484C77.2999 159.642 76.4834 160.209 77.196 160.548C79.9091 161.843 82.9916 162.351 85.9769 161.999C86.1286 161.981 86.3018 161.966 86.4172 162.068C86.4947 162.136 86.5261 162.239 86.5525 162.337C86.6564 162.733 86.7108 163.175 86.5212 163.54C86.3381 163.891 85.9686 164.1 85.713 164.402C85.2264 164.973 85.2017 165.79 85.1984 166.539C85.1803 174.099 85.2067 181.659 85.2083 189.219C85.2083 192.382 85.1935 195.546 85.1935 198.71C85.1918 199.187 85.139 199.666 85.139 200.251C83.7585 200.475 82.4292 200.673 81.1081 200.918C80.6084 201.01 79.9948 200.921 79.6518 201.676C81.0091 201.737 82.3022 201.779 83.5953 201.857C84.9032 201.936 86.2556 201.697 87.6097 202.491C87.2716 202.756 86.9895 203.026 86.6663 203.225C84.9098 204.307 83.1961 204.773 81.1609 204.953C79.058 205.139 76.9469 204.981 74.8374 205.034C72.1853 205.1 69.5349 204.999 66.8828 205.034C65.5568 205.052 64.2307 205.035 62.9047 205.034C61.9184 205.034 60.7029 205.658 60.3021 204.508C60.2246 204.288 60.0992 204.085 59.9458 203.772C60.8282 203.296 61.6809 202.837 62.6193 202.331C61.9068 201.407 61.9778 200.401 61.9745 199.418C61.953 191.806 61.9712 184.194 61.986 176.582C62.0009 169.072 62.0074 161.564 61.9745 154.054V153.829C61.9712 153.252 61.9745 152.666 62.0767 152.098C62.1889 151.48 62.5418 151.022 62.7332 150.479L62.7315 150.476ZM79.1108 201.513C77.9859 200.488 78.009 199.105 78.0074 197.778C78.0041 188.105 78.0074 178.433 78.0074 168.761C78.0074 167.5 78.0569 166.21 78.8815 165.103C78.8964 165.084 78.8749 165.037 78.8634 164.957C77.2949 164.782 75.7165 164.545 74.1315 164.448C72.5911 164.354 71.4349 163.641 70.48 162.486C70.414 162.407 70.3282 162.343 70.2755 162.258C69.6801 161.278 68.7201 161.027 67.6662 160.886C67.305 161.798 67.1797 162.785 67.719 163.649C68.0241 164.137 68.4249 164.571 68.6393 165.107C68.9395 165.858 68.8191 166.683 68.8174 167.47C68.8158 168.422 68.8174 169.375 68.8158 170.327L68.8125 176.044C68.8092 179.854 68.8075 183.665 68.8042 187.476C68.8042 190.166 68.8043 192.853 68.8207 195.541C68.8323 197.586 68.1198 199.253 67.3908 201.127C67.3496 201.233 67.3083 201.345 67.3232 201.457C67.3364 201.557 67.3957 201.648 67.4617 201.725C67.9384 202.282 68.768 202.334 69.5019 202.343C71.6229 202.369 73.7423 202.397 75.8633 202.423C77.0986 202.438 78.301 202.591 79.1124 201.514L79.1108 201.513ZM68.8438 159.379C69.1671 159.166 69.3584 159.087 69.4838 158.949C70.348 157.994 71.4217 158.119 72.6043 158.124C74.2635 158.13 75.9012 157.561 77.2784 156.635C78.6556 155.71 79.7821 154.441 80.6595 153.035C80.8112 152.793 80.9597 152.531 80.9663 152.246C80.9794 151.773 80.5441 151.528 80.1268 151.485C78.0981 151.278 76.0695 151.075 74.0408 150.876C73.0265 150.775 72.0122 150.678 70.9962 150.58C70.2045 150.502 69.431 150.601 69.0418 151.408C68.8373 151.831 68.834 152.32 68.834 152.79C68.8356 154.987 68.8405 157.182 68.8405 159.379H68.8438Z" fill="white"/>
<path id="Vector_8" d="M122.438 165.284C122.206 164.616 120.139 164.346 119.585 164.227C115.437 163.343 111.295 161.594 107.806 159.184C105.19 157.379 102.858 155.15 100.842 152.699C99.9532 151.617 99.1203 150.484 98.388 149.29C98.0796 148.786 97.847 148.208 97.5155 147.724C97.2714 147.368 97.3027 147.398 96.836 147.523C96.3956 147.641 95.9602 147.775 95.5264 147.916C93.7485 148.498 91.9458 149.188 90.3723 150.212C91.1162 150.428 91.8633 150.637 92.6022 150.863C92.236 151.26 91.7214 151.722 91.4773 152.207C91.3091 152.539 91.3075 152.93 91.3092 153.302C91.3339 158.603 91.319 163.904 91.319 169.206V174.896C91.3718 175.181 91.451 175.465 91.5351 175.739C92.9815 180.421 95.0135 184.945 97.3539 189.268C98.5018 191.388 99.5029 193.584 100.507 195.773C100.986 196.816 101.207 197.932 100.918 199.097C100.852 199.358 100.882 199.645 100.883 199.92C100.883 200.664 101.225 201.137 101.979 201.28C102.168 201.317 102.777 200.134 103.049 200.022C103.768 199.724 103.616 200.857 103.502 201.302C103.052 203.074 102.308 204.838 100.969 206.086C99.7668 207.208 97.118 208.12 96.6067 209.79C96.6117 209.772 99.1598 209.678 99.4072 209.645C100.433 209.505 101.449 209.26 102.406 208.859C105.472 207.573 107.644 204.854 109.92 202.432C112.394 199.798 115.133 197.415 118.082 195.329C118.665 194.917 119.303 194.497 119.395 193.769C119.514 192.834 119.395 191.799 119.399 190.856C119.405 188.896 119.412 186.936 119.418 184.975C119.432 181.055 119.445 177.134 119.456 173.214C119.46 172.195 119.463 171.175 119.466 170.156C119.468 169.565 119.28 168.596 119.473 168.043C119.61 167.651 120.05 167.442 120.405 167.22C120.875 166.926 122.527 166.083 122.455 165.37C122.451 165.34 122.445 165.312 122.435 165.284H122.438ZM100.403 153.766C100.412 153.789 100.422 153.814 100.431 153.837C100.415 153.817 100.4 153.797 100.385 153.778C100.39 153.774 100.397 153.769 100.403 153.766ZM112.064 169.173C112.061 169.795 112.09 170.423 112.089 171.037C112.084 172.834 112.081 174.631 112.076 176.427C112.062 181.855 112.076 187.28 112.076 192.707C112.087 193.41 111.545 193.935 111.045 194.449C109.885 195.637 108.785 196.88 107.67 198.108C107.466 198.334 107.299 198.593 107.114 198.835C107.006 198.762 106.898 198.69 106.791 198.617C106.91 198.276 106.959 197.888 107.159 197.603C108.881 195.146 108.825 192.667 107.327 190.144C106.799 189.255 106.359 188.308 105.759 187.47C103.316 184.059 101.53 180.148 100.047 176.24C99.4155 174.575 99.3759 172.758 99.3413 171.001C99.3067 169.183 99.2703 167.364 99.2357 165.545C99.2176 164.647 99.2011 163.75 99.183 162.852C99.1665 161.974 99.0263 160.996 99.1434 160.128C99.4864 160.217 99.8855 160.754 100.144 161.006C100.499 161.352 100.85 161.702 101.233 162.017C101.974 162.626 102.754 163.19 103.563 163.702C105.185 164.729 106.933 165.558 108.754 166.162C110.312 166.679 111.911 167.004 113.539 167.205C113.294 167.175 112.823 167.554 112.603 167.659C112.14 167.882 112.133 167.831 112.094 168.336C112.072 168.611 112.064 168.888 112.062 169.166L112.064 169.173Z" fill="white"/>
<path id="Vector_9" d="M29.9154 145.01C30.0061 145.15 28.652 146.614 28.464 146.811C27.9131 147.389 27.4876 148.058 27.255 148.826C26.747 150.495 27.1626 152.249 27.1132 153.954C27.0604 155.754 27.0621 157.556 27.0637 159.359C27.0637 163.16 27.0637 166.959 27.0637 170.76C27.0604 176.872 27.0571 182.984 27.0571 189.095C27.0571 191.444 27.1214 193.797 27.0192 196.139C26.9549 197.585 27.0587 199.037 27.3243 200.46C27.4579 201.17 27.6245 201.878 27.8455 202.567C27.9593 202.917 28.0599 203.026 27.8966 203.323C27.7745 203.543 27.222 204.1 26.9598 204.057C26.6975 204.014 26.1137 203.171 25.8976 202.965C25.1274 202.224 24.3011 201.544 23.521 200.814C22.35 199.719 21.2548 198.472 20.7386 196.956C20.3015 195.669 20.3098 194.28 20.3246 192.921C20.4021 185.416 20.3774 177.913 20.3757 170.406C20.3757 165.303 20.3741 160.201 20.3988 155.097C20.4038 153.985 20.3362 152.712 19.4653 152.019C19.279 151.871 19.0382 151.711 19.0513 151.474C19.0612 151.276 19.2493 151.139 19.4175 151.034C20.7996 150.164 22.1818 149.297 23.5639 148.427C23.5556 148.432 22.9618 148.279 22.9107 148.275C22.5627 148.254 22.218 148.305 21.8815 148.389C21.2185 148.555 20.6 148.86 19.942 149.043C18.5137 149.438 17.0326 149.628 15.5515 149.619C15.1029 149.618 13.8709 149.315 13.5047 149.575C13.4421 149.619 13.3959 149.685 13.3563 149.751C12.5333 151.083 12.8466 152.939 12.8499 154.43C12.8532 156.329 12.8549 158.226 12.8565 160.125C12.8582 163.921 12.8565 167.717 12.8532 171.513C12.8532 172.5 12.8516 173.488 12.8499 174.474C12.8417 181.99 12.8368 189.508 12.8384 197.025C12.8384 197.554 12.8384 198.082 12.8384 198.611C12.8384 199.454 12.8384 200.301 12.9621 201.134C12.9901 201.327 13.0644 201.559 13.2557 201.592C13.3893 201.366 13.5229 201.142 13.6548 200.916C13.6944 200.851 13.7356 200.781 13.8032 200.744C13.9005 200.688 14.0226 200.714 14.1314 200.74C14.6873 200.875 15.2447 201.012 15.8006 201.147C15.2711 201.863 14.9462 202.766 14.2189 203.281C13.8824 203.52 13.4833 203.655 13.0924 203.785C12.1605 204.098 11.227 204.411 10.2951 204.724C9.48038 204.997 8.63759 205.109 7.77994 205.045C7.16475 204.999 6.57268 204.94 6.03995 204.629C5.96079 204.582 5.87832 204.53 5.83544 204.449C5.79256 204.367 5.79582 204.27 5.79912 204.176C6.14712 196.681 5.87831 189.108 5.86677 181.603C5.85522 173.98 5.83705 166.355 5.8387 158.732C5.8387 155.263 5.75955 151.78 5.85026 148.315C5.8651 147.77 5.96243 147.203 6.28405 146.762C6.33188 146.696 6.38628 146.632 6.4605 146.596C6.53966 146.558 6.63038 146.558 6.7178 146.558C7.80799 146.563 8.89655 146.563 9.98674 146.563C13.8577 146.583 17.7286 146.522 21.5599 145.919C23.869 145.555 26.1566 145.044 28.4475 144.57C29.0148 144.453 29.5179 144.384 29.9203 145.011L29.9154 145.01Z" fill="white"/>
<path id="Vector_10" d="M221.37 151.945C221.153 150.751 221.7 149.807 222.342 149.17C223.625 147.841 224.7 147.07 225.888 146.406C226.455 146.003 227.148 145.718 227.826 145.547C229.216 145.197 229.958 145.563 230.763 146.777C231.185 147.414 231.616 148.048 232.046 148.681C232.305 149.061 233.303 150.764 233.757 149.516C233.854 149.249 233.801 148.954 233.767 148.672C233.734 148.406 233.565 147.6 233.81 147.436C234.024 147.289 234.773 147.729 234.981 147.813C235.667 148.086 235.683 148.735 235.683 149.399C235.672 158.463 235.655 167.528 235.678 176.59C235.678 181.152 235.678 185.714 235.67 190.276C235.667 192.585 235.665 193.739 235.668 196.048C235.668 196.788 235.624 197.504 235.594 198.239C235.54 199.548 235.968 202.545 234.342 203.248C234.072 202.511 234.421 201.527 234.314 200.743C234.296 200.613 234.245 200.45 234.115 200.444C234.021 200.439 233.95 200.523 233.899 200.602C233.45 201.299 233.389 202.166 233.348 202.995C233.333 203.276 233.308 203.586 233.11 203.789C233 203.901 232.851 203.963 232.706 204.022C231.975 204.322 231.245 204.624 230.498 204.876C229.485 205.216 228.997 205.165 228.959 204.106C228.934 203.421 229.055 202.74 229.055 202.056C229.053 199.961 229.079 197.894 229.078 195.798C229.074 191.663 229.071 188.682 229.068 184.546C229.066 182.359 225.561 182.936 224.342 183.733C223.11 184.538 222.053 185.558 221.13 186.719C220.765 187.176 220.653 187.647 220.74 188.247C221.103 190.734 221.351 192.084 221.191 194.602C221.141 195.383 221.001 196.177 220.775 196.924C220.176 198.896 219.485 200.905 218.878 202.873C218.697 203.462 218.403 203.81 217.813 203.963C216.536 204.293 215.268 204.661 213.993 205.002C213.798 205.055 213.589 205.07 213.388 205.062C212.7 205.037 212.451 204.709 212.688 204.057C212.839 203.644 213.058 203.235 213.328 202.893C213.767 202.338 214.011 201.649 214.178 200.976C214.648 199.072 215.063 197.162 215.111 195.185C215.161 193.135 214.852 192.272 214.315 190.324C213.916 188.874 214.269 187.83 215.197 186.766C216.782 184.952 218.547 183.466 220.923 182.852C222.005 182.572 223.068 182.209 224.136 181.88C224.357 181.813 224.573 181.724 224.799 181.643C224.916 181.042 224.648 180.683 224.194 180.439C223.988 180.329 223.757 180.23 223.528 180.202C221.286 179.927 219.071 179.914 216.934 180.838C216.442 181.05 215.908 181.216 215.38 181.269C214.302 181.376 213.749 180.958 213.675 179.848C213.391 175.573 213.375 171.464 215.469 167.574C216.668 165.349 218.354 163.427 220.059 161.558C222.231 159.176 224.479 156.828 227.127 154.986C227.616 154.646 228.156 154.272 228.302 153.694C228.385 153.369 228.327 153.025 228.251 152.699C228.085 151.974 227.836 151.269 227.511 150.601C227.387 150.346 227.239 150.08 226.99 149.944C226.666 149.764 226.264 149.845 225.908 149.945C225.515 150.056 221.304 151.581 221.37 151.948V151.945ZM230.903 155.965C230.516 155.721 229.812 156.686 229.482 156.989C228.268 158.106 227.052 159.222 225.868 160.37C223.533 162.635 221.991 165.39 221.166 168.55C220.348 171.686 219.571 174.831 218.722 178.189C220.411 177.298 222.075 177.514 223.719 177.513C224.194 177.513 224.669 177.501 225.142 177.518C226.388 177.559 227.437 177.491 228.619 177.946C229.074 177.315 228.733 175.398 228.731 174.588C228.73 173.32 228.726 172.05 228.725 170.782C228.72 168.3 228.716 165.818 228.712 163.335C228.71 162.071 228.723 160.747 229.337 159.644C229.691 159.005 230.227 158.484 230.615 157.865C230.857 157.477 231.313 156.523 231.004 156.064C230.974 156.019 230.941 155.986 230.907 155.965H230.903Z" fill="white"/>
<path id="Vector_11" d="M206.69 173.911C206.861 173.931 207.013 173.993 207.117 174.135C207.242 174.303 207.247 174.528 207.247 174.738C207.251 182.26 207.252 189.452 207.256 196.975C207.256 198.202 207.231 199.513 206.537 200.524C205.493 202.046 203.705 202.082 202.102 202.516C202.324 202.455 203.192 202.916 203.459 202.985C204.597 203.28 206.236 203.352 207.04 204.332C207.155 204.472 207.374 204.808 207.129 204.943C207.059 204.981 206.979 204.984 206.901 204.987C201.255 205.21 195.603 204.978 189.956 204.978C188.59 204.978 188.416 204.424 188.416 203.204C188.416 201.824 188.416 200.442 188.416 199.062C188.416 196.3 188.416 193.54 188.416 190.778C188.416 185.256 188.416 180.064 188.416 174.542C188.416 165.706 188.416 156.87 188.416 148.035C188.416 147.684 188.424 147.307 188.627 147.022C188.942 146.579 189.573 146.54 190.116 146.543C191.261 146.548 192.404 146.554 193.548 146.559C193.984 146.561 194.47 146.586 194.769 146.902C195.188 147.347 195.028 148.259 195.038 148.814C195.052 149.697 195.047 150.581 195.031 151.465C195 153.236 194.925 155.005 194.901 156.775C194.83 161.806 194.924 167.812 198.74 171.615C200.615 173.483 203.391 174.558 205.977 173.985C206.205 173.934 206.464 173.883 206.692 173.909L206.69 173.911ZM193.956 203.593C194.135 203.899 195.16 203.777 195.498 203.746C196.923 203.619 198.269 203.069 199.613 202.616C199.989 202.489 200.378 202.364 200.683 202.107C201.137 201.723 201.1 201.201 201.094 200.661C201.086 199.887 201.114 199.11 201.122 198.334C201.14 196.784 201.153 195.236 201.166 193.687C201.193 190.589 201.211 187.819 201.232 184.721C201.237 184.039 201.242 183.357 201.247 182.675C201.26 180.966 201.272 179.257 201.285 177.547C201.293 176.513 200.832 176.722 199.948 176.74C199.014 176.76 198.076 176.783 197.147 176.664C196.586 176.594 196.078 176.373 195.572 176.134C195.198 175.958 194.383 175.339 193.962 175.405C193.07 175.543 193.667 177.636 194.191 178.147C194.383 178.333 194.617 178.473 194.78 178.683C195.066 179.051 195.077 179.553 195.077 180.017C195.077 184.22 195.077 188.092 195.077 192.295C195.077 194.087 195.077 195.88 195.077 197.672C195.077 199.235 195.336 200.893 194.666 202.371C194.506 202.723 193.985 203.071 193.933 203.451C193.924 203.505 193.934 203.551 193.957 203.589L193.956 203.593Z" fill="white"/>
<path id="Vector_12" d="M97.5948 134.109C97.5948 134.109 97.5998 134.114 97.6014 134.117C96.9565 134.69 96.3546 135.309 95.802 135.972C95.4524 136.39 94.9493 137.429 94.3836 137.589C93.361 137.879 92.2774 138.025 91.1295 138.027C74.3659 138.045 57.604 138.071 40.8388 138.106C29.1452 138.129 17.4532 138.167 5.75955 138.211C4.99097 138.213 4.32465 138.145 4.02612 137.154C5.98715 136.97 7.89047 136.79 9.77399 136.612C10.1995 135.563 10.0313 135.267 8.98396 135.204C7.81295 135.135 6.64028 135.095 5.47092 135.02C4.61493 134.964 4.44011 134.69 4.78317 133.888C5.03881 133.29 5.34558 132.709 5.68369 132.151C6.1422 131.395 6.78542 131.039 7.73707 131.041C14.5322 131.064 21.3274 131.041 28.1226 131.026C39.7519 130.998 51.3828 130.972 63.0121 130.944C68.4202 130.93 73.8282 130.917 79.2363 130.902C81.9692 130.896 84.7022 130.888 87.4351 130.879C88.7727 130.876 90.1102 130.871 91.4478 130.868C92.444 130.865 94.0191 130.504 94.7794 131.27C95.7195 132.215 96.658 133.16 97.5915 134.111L97.5948 134.109Z" fill="#E7A545"/>
<path id="Vector_13" d="M239.356 132.819C238.609 133.144 237.794 133.327 236.993 133.511C236.493 133.626 235.965 133.689 235.452 133.673C234.507 133.641 233.996 134.262 233.321 134.871C235.057 135.226 236.785 135.081 238.385 135.965C238.199 136.242 238.108 136.467 237.945 136.606C236.952 137.436 235.899 138.014 234.507 138.012C207.741 137.987 180.974 137.994 154.206 137.994H153.119C153.109 137.92 153.097 137.846 153.086 137.772C153.798 137.395 154.511 137.021 155.223 136.644C155.213 136.594 155.205 136.545 155.195 136.495C154.88 136.495 154.564 136.5 154.249 136.495C152.906 136.477 151.557 136.523 150.223 136.405C150.078 136.392 149.929 136.373 149.781 136.344C148.966 136.186 148.403 135.011 147.971 134.415C147.932 134.361 147.892 134.302 147.895 134.236C147.9 134.167 147.953 134.111 148.003 134.061C148.849 133.218 149.68 132.362 150.524 131.518C151.471 130.562 152.619 130.84 153.874 130.84C155.329 130.84 156.784 130.842 158.238 130.843C161.148 130.845 164.057 130.846 166.966 130.848C172.785 130.851 178.602 130.853 184.421 130.853C196.057 130.855 207.695 130.855 219.33 130.853C225.557 130.853 231.781 130.851 238.007 130.85C238.639 130.85 239.244 130.814 239.65 131.451C240.024 132.04 240.001 132.539 239.358 132.821L239.356 132.819Z" fill="#E7A545"/>
<path id="Vector_14" d="M122.667 148.747C121.307 150.057 119.941 151.372 118.577 152.686C117.909 153.33 117.512 153.345 116.953 152.655C115.567 150.94 114.206 149.206 112.841 147.475C112.763 147.376 112.734 147.241 112.681 147.123C113.685 146.663 114.561 146.752 115.386 147.441C115.726 147.725 116.128 147.943 116.522 148.154C116.994 148.407 117.434 148.376 117.83 147.953C118.488 147.249 119.166 146.568 119.916 145.794C116.181 142.016 112.485 138.277 108.693 134.443C108.061 135.097 107.433 135.675 106.895 136.327C106.555 136.741 106.501 137.264 106.841 137.763C107.307 138.445 107.763 139.135 108.215 139.827C108.358 140.046 108.475 140.282 108.658 140.606C107.492 140.715 106.506 140.813 105.562 140.026C104.429 139.079 103.166 138.285 101.962 137.423C101.024 136.749 100.997 136.418 101.838 135.558C102.97 134.4 104.114 133.253 105.249 132.1C105.416 131.93 105.569 131.749 105.787 131.507C104.949 130.657 104.131 129.827 103.313 128.997C102.805 128.482 102.267 127.991 101.797 127.444C101.523 127.126 101.357 126.718 101.108 126.291C101.731 125.828 102.249 125.438 102.773 125.059C103.695 124.394 104.652 123.772 105.538 123.062C106.197 122.531 106.888 122.284 107.723 122.382C107.99 122.413 108.264 122.386 108.731 122.386C108.467 122.816 108.285 123.126 108.089 123.426C107.693 124.03 107.278 124.623 106.89 125.234C106.504 125.842 106.542 126.382 107.039 126.909C107.556 127.457 108.116 127.968 108.739 128.574C112.433 124.835 116.128 121.097 119.916 117.263C119.123 116.454 118.391 115.641 117.573 114.926C117.372 114.75 116.845 114.801 116.539 114.921C116.065 115.107 115.618 115.404 115.221 115.725C114.418 116.375 113.588 116.309 112.638 115.934C112.811 115.679 112.945 115.451 113.108 115.246C114.347 113.678 115.585 112.112 116.834 110.552C117.502 109.719 117.906 109.704 118.673 110.475C119.743 111.548 120.802 112.634 121.871 113.709C122.108 113.948 122.361 114.172 122.676 114.468C123.441 113.696 124.165 112.968 124.887 112.238C125.542 111.578 126.184 110.903 126.853 110.259C127.328 109.803 127.868 109.809 128.273 110.312C129.741 112.131 131.183 113.971 132.695 115.88C131.846 116.245 131.115 116.451 130.34 115.881C129.87 115.535 129.352 115.254 128.852 114.947C128.395 114.668 127.952 114.62 127.544 115.041C126.852 115.758 126.159 116.473 125.389 117.266C129.126 121.046 132.819 124.783 136.598 128.605C137.226 127.964 137.843 127.383 138.404 126.752C138.791 126.316 138.748 125.746 138.354 125.14C137.795 124.28 137.218 123.432 136.561 122.449C137.795 122.357 138.804 122.253 139.767 123.052C140.932 124.017 142.222 124.83 143.45 125.718C144.217 126.273 144.257 126.686 143.586 127.38C142.482 128.518 141.359 129.636 140.247 130.766C140.01 131.008 139.782 131.262 139.509 131.556C140.808 132.869 142.065 134.139 143.322 135.41C143.515 135.606 143.731 135.79 143.881 136.016C144.158 136.431 144.082 136.881 143.673 137.177C142.166 138.269 140.66 139.363 139.128 140.417C138.389 140.924 137.557 140.645 136.584 140.609C136.997 139.978 137.313 139.46 137.661 138.966C139.174 136.82 138.979 136.843 137.274 135.127C137.081 134.932 136.878 134.748 136.584 134.468C132.87 138.226 129.176 141.966 125.389 145.797C126.152 146.579 126.88 147.338 127.622 148.08C127.968 148.425 128.389 148.361 128.773 148.16C129.169 147.953 129.566 147.729 129.91 147.445C130.734 146.765 131.607 146.645 132.639 147.133C132.515 147.332 132.413 147.538 132.275 147.714C131.016 149.31 129.758 150.906 128.488 152.492C127.769 153.389 127.442 153.382 126.588 152.546C125.285 151.27 123.969 150.008 122.667 148.747ZM122.654 120.079C118.891 123.956 115.226 127.729 111.531 131.533C115.264 135.372 118.927 139.142 122.658 142.979C126.4 139.127 130.061 135.359 133.782 131.53C130.06 127.699 126.395 123.928 122.654 120.079Z" fill="#E7A545"/>
<path id="Vector_15" d="M122.737 136.495C121.02 134.71 119.38 133.007 117.751 131.314C119.337 129.794 121.063 128.142 122.803 126.474C124.289 128.019 125.928 129.725 127.652 131.518C126.121 133.068 124.463 134.746 122.738 136.495H122.737Z" fill="#E7A545"/>
<path id="Vector_16" d="M132.827 204.909C132.789 204.969 132.74 205.019 132.672 205.042C132.624 205.058 132.571 205.058 132.522 205.058C131.958 205.058 131.392 205.058 130.828 205.058C130.142 205.058 129.454 205.058 128.768 205.058H127.825C127.795 205.058 127.764 205.058 127.739 205.045C127.716 205.032 127.698 205.009 127.686 204.984C127.628 204.877 127.627 204.75 127.627 204.629C127.627 203.968 127.625 203.306 127.625 202.646C127.625 202.595 127.625 202.544 127.625 202.493C127.625 202.32 127.417 202.231 127.292 202.353C127.114 202.524 126.901 202.745 126.746 202.947C126.429 203.36 126.49 204.713 126.405 204.884C126.368 204.955 126.26 205.045 126.184 205.055C126.055 205.073 125.912 205.058 125.781 205.055C125.763 205.055 125.745 205.055 125.729 205.05C125.707 205.045 125.686 205.034 125.667 205.022C125.379 204.843 125.232 204.543 125.196 204.214C125.108 203.431 125.191 201.719 125.201 200.931C125.212 200.07 125.224 198.056 125.235 197.195C125.258 195.47 125.28 193.748 125.301 192.025C125.326 190.06 125.349 188.095 125.371 186.132C125.399 183.547 125.423 180.963 125.443 178.379C125.463 175.652 125.498 173.354 126.598 170.782C127.124 169.55 127.746 168.354 128.526 167.266C130.444 164.583 133.195 162.678 135.788 160.7C136.997 159.779 138.474 158.842 139.307 157.549C139.462 157.312 139.593 157.063 139.701 156.803C139.711 156.778 139.716 156.752 139.716 156.726V153.781C139.716 153.768 139.716 153.753 139.711 153.74C139.672 153.557 139.637 153.402 139.611 153.303C139.591 153.229 139.614 153.15 139.672 153.101C139.708 153.07 139.744 153.04 139.781 153.009C139.797 152.994 139.817 152.982 139.837 152.976C140.058 152.888 140.267 152.806 140.462 152.729C140.47 152.725 140.477 152.722 140.483 152.719C142.105 151.857 143.63 150.726 145.035 149.359L145.961 148.406C146.991 147.286 147.635 146.032 148.502 144.669C148.629 144.468 149.198 144.311 149.398 144.224C149.454 144.201 149.337 145.507 149.277 145.858C149.272 145.888 149.267 145.911 149.264 145.925C148.989 146.904 148.372 147.796 147.979 148.732C147.023 151.019 146.93 153.544 147.003 155.99C147.259 164.588 147.071 173.201 147.044 181.803C147.033 185.444 147.031 189.087 147.031 192.728V201.025C147.031 201.529 147.11 202.106 146.881 202.562C146.495 203.329 145.578 203.606 144.714 203.769C144.592 203.792 144.48 203.7 144.48 203.576C144.481 202.924 144.484 202.274 144.488 201.623C144.488 201.453 144.287 201.361 144.161 201.476C143.833 201.773 143.368 202.191 143.292 202.326C142.977 202.889 142.909 203.472 142.838 204.103C142.832 204.166 142.822 204.233 142.784 204.286C142.738 204.349 142.66 204.375 142.586 204.398C141.93 204.607 141.286 204.864 140.623 205.055C139.743 205.309 139.576 204.372 139.565 203.713C139.527 201.686 139.715 199.645 139.715 197.614V163.536C139.715 163.366 139.512 163.275 139.386 163.391C138.491 164.207 137.486 165.225 137.28 165.408C135.997 166.549 134.725 167.783 134.058 169.394C133.757 170.115 133.462 170.879 133.281 171.651C133.277 171.666 133.276 171.683 133.276 171.697C133.266 174.337 133.256 176.977 133.244 179.619C133.225 184.637 133.205 189.653 133.185 194.672C133.18 196.001 133.203 197.335 133.169 198.664C133.147 199.48 133.142 200.299 133.132 201.117C133.122 201.926 133.103 202.735 133.061 203.543C133.056 203.649 133.05 203.756 133.045 203.861C133.037 204.011 133.027 204.161 133.004 204.309C132.982 204.444 132.949 204.578 132.91 204.709C132.89 204.775 132.865 204.844 132.829 204.904L132.827 204.909Z" fill="white"/>
<path id="Vector_17" d="M56.5351 153.766C56.5252 152.574 56.5103 151.38 56.4938 150.186C56.4872 149.81 56.3982 149.336 56.1821 149.086C55.5405 148.343 54.8462 147.645 54.1106 147.019C53.7956 146.749 53.3305 146.576 52.9313 146.573C47.6667 146.545 42.4038 146.55 37.1392 146.566C36.867 146.568 36.5273 146.662 36.331 146.856C35.3167 147.865 34.3205 148.9 33.354 149.965C32.719 150.667 32.4815 151.521 32.4931 152.569C32.5343 156.245 32.4931 159.921 32.4848 163.598C32.4815 165.308 32.315 167.052 32.7058 168.712C33.1363 170.541 33.6393 172.353 34.1424 174.164C35.1056 177.631 36.0704 181.099 37.2216 184.51C37.8022 186.23 38.4306 187.934 39.1299 189.609C39.7616 191.122 40.5945 192.349 40.766 194.046C40.8419 194.788 40.8271 195.539 40.7545 196.284C40.6539 197.305 40.5582 198.326 40.4609 199.355C40.4279 199.708 41.8018 198.985 41.8859 198.912C42.2718 198.583 42.6099 198.076 43.1163 197.932C43.6754 198.962 42.9942 200.748 42.511 201.695C41.9172 202.861 41.0777 203.879 40.2844 204.92C39.214 206.325 38.1568 207.84 36.5817 208.645C36.3789 208.749 36.1645 208.843 36.0094 209.009C35.8544 209.176 35.7752 209.439 35.8956 209.633C36.2716 210.246 38.1255 209.34 38.6071 209.218C39.755 208.929 40.9392 208.739 42.0211 208.238C42.5423 207.996 43.0322 207.687 43.4808 207.328C45.897 205.407 47.0152 202.339 48.6843 199.745C50.4903 196.939 52.9792 194.652 55.214 192.17C55.6379 191.699 56.0584 191.211 56.3322 190.64C56.7396 189.787 56.5697 188.832 56.5681 187.914C56.5681 187.356 56.5681 186.799 56.5664 186.241C56.5664 184.678 56.5631 183.117 56.5615 181.554C56.5582 177.504 56.5532 173.455 56.5499 169.405C56.5466 165.765 56.5433 162.126 56.5384 158.486C56.5384 157.187 56.5351 155.887 56.5351 154.59V153.766ZM49.2814 152.613V181.328C49.2814 184.566 49.6277 188.038 48.7223 191.167C48.559 191.733 48.3875 192.303 48.1005 192.819C47.8432 193.28 47.426 193.835 46.9031 193.996C46.7184 193.257 46.8916 192.288 46.8866 191.518C46.88 190.668 46.8487 189.818 46.7431 188.975C46.5073 187.071 46.0108 185.207 45.3791 183.397C44.2526 180.167 42.7304 177.089 41.4043 173.939C40.3685 171.478 39.4565 169.285 39.3229 166.577C39.1563 163.176 39.1134 156.852 39.3229 153.453C39.4334 151.668 40.009 149.828 41.622 149.176C41.8628 149.078 42.1416 149.068 42.4038 149.061C44.1422 149.022 45.8376 149.255 47.421 150.128C48.3364 150.632 49.2385 151.166 50.2875 151.767" fill="white"/>
<path id="Vector_18" d="M56.3042 190.771C56.4872 190.386 56.5696 189.961 56.5696 189.464Z" fill="white"/>
</g>
</svg>
