<svg width="143" height="36" viewBox="0 0 143 36" fill="none" xmlns="http://www.w3.org/2000/svg">
<g id="Group 9873">
<path id="Vector" fill-rule="evenodd" clip-rule="evenodd" d="M17.28 36C9.13414 36 5.06119 36 2.5306 33.4694C5.85209e-07 30.9388 4.22893e-07 26.8658 6.37574e-08 18.7199L2.70512e-10 17.2799C-3.58866e-07 9.13402 -5.85209e-07 5.06107 2.5306 2.53045C5.06119 5.85209e-07 9.13414 4.15695e-07 17.28 6.26705e-08L18.72 2.63652e-10C26.8659 -3.52765e-07 30.9388 -5.85209e-07 33.4694 2.53045C36 5.06103 36 9.13402 36 17.2799V18.7199C36 26.8658 36 30.9388 33.4694 33.4694C30.9388 36 26.8659 36 18.72 36H17.28Z" fill="#0077FF"/>
<path id="Vector_2" d="M20.8173 22.1854C19.8474 21.9431 19.1672 21.0755 19.1672 20.0804V8.35667C19.1672 7.22639 20.2353 6.39745 21.337 6.67265L28.3136 8.41546C29.2836 8.65772 29.9637 9.52536 29.9637 10.5205V22.2442C29.9637 23.3744 28.8956 24.2034 27.7939 23.9282L20.8173 22.1854Z" fill="white"/>
<path id="Vector_3" d="M7.68665 27.5837C6.71669 27.3414 6.03662 26.4737 6.03662 25.4786V13.7549C6.03662 12.6247 7.10464 11.7957 8.20632 12.0709L15.183 13.8137C16.1529 14.056 16.833 14.9236 16.833 15.9187V27.6424C16.833 28.7727 15.765 29.6017 14.6633 29.3265L7.68665 27.5837Z" fill="white"/>
<path id="Vector_4" d="M14.2518 24.8847C13.2819 24.6424 12.6018 23.7747 12.6018 22.7796V11.056C12.6018 9.92571 13.6699 9.09672 14.7715 9.37192L21.7482 11.1147C22.7181 11.357 23.3982 12.2247 23.3982 13.2198V24.9434C23.3982 26.0738 22.3302 26.9027 21.2285 26.6275L14.2518 24.8847Z" fill="white"/>
<path id="Vector_5" d="M18.8181 26.0284C18.5126 25.9506 18.2952 25.6805 18.2845 25.3654L17.981 16.412C17.8932 15.2271 17.0136 14.2847 16.0944 14.0071C16.0428 13.9915 15.9877 14.0125 15.9571 14.0569C15.926 14.102 15.938 14.1645 15.9814 14.198C16.2084 14.3738 16.8331 14.9472 16.8331 15.9362L16.8312 25.5249L18.8181 26.0284Z" fill="#2B71F6"/>
<path id="Vector_6" d="M25.3853 23.3266C25.08 23.2503 24.8623 22.9809 24.8517 22.6664L24.5481 13.7137C24.4603 12.5288 23.5807 11.5863 22.6615 11.3088C22.6099 11.2932 22.5548 11.3142 22.5242 11.3586C22.4932 11.4037 22.5052 11.4662 22.5485 11.4997C22.7755 11.6754 23.4002 12.2489 23.4002 13.2379L23.3984 22.8299L25.3853 23.3266Z" fill="#2B71F6"/>
<path id="Vector_7" d="M56.7241 20.682C59.4503 19.987 61.2417 17.9019 61.2417 15.1732C61.2417 11.801 58.5413 9.43279 54.7507 9.43279H48.0002V27.5808H51.1159V20.9137H53.3229L58.1518 27.5808H61.8128L56.7241 20.682ZM54.7507 12.2644C56.6979 12.2644 58.0483 13.4485 58.0483 15.1732C58.0483 16.8979 56.6979 18.0821 54.7507 18.0821H51.1159V12.2644H54.7507Z" fill="black"/>
<path id="Vector_8" d="M68.8251 27.8382C70.4607 27.8382 71.9665 26.9888 72.8236 25.5729L73.4204 27.5808H75.6537V14.195H72.6677V21.9434C72.6677 23.8483 71.3954 25.1868 69.656 25.1868C67.9423 25.1868 66.7477 23.8483 66.7477 21.9434V14.195H63.7622V22.278C63.7622 25.4958 65.9431 27.8382 68.8251 27.8382Z" fill="black"/>
<path id="Vector_9" d="M85.1823 27.8383C88.6354 27.8383 91.4917 25.8819 91.4917 22.6385C91.4917 19.0088 88.5057 17.9534 85.9354 17.0782C83.9362 16.4089 82.1967 15.7911 82.1967 14.1694C82.1967 12.7536 83.5205 12.007 85.0783 12.007C86.7143 12.007 87.8827 12.8565 88.5319 14.2981L91.4917 13.809C90.5569 10.9774 88.194 9.17544 84.9748 9.17544C81.6514 9.17544 79.0029 11.0803 79.0029 14.3238C79.0029 17.9792 81.9889 18.9831 84.5592 19.8326C86.5327 20.4762 88.2979 21.0939 88.2979 22.7414C88.2979 24.183 86.9741 25.0067 85.2084 25.0067C83.183 25.0067 82.0928 24.0543 81.1323 22.3296L78.1201 22.8444C79.0029 25.9077 81.8073 27.8383 85.1823 27.8383Z" fill="black"/>
<path id="Vector_10" d="M99.614 25.0066C98.6015 25.0066 98.1081 24.5175 98.1081 23.5136V16.7692H102.132V14.195H98.1081V10.3337H95.8753L95.1222 14.195H92.9155V16.7692H95.1222V23.5136C95.1222 26.1393 96.6542 27.5809 99.614 27.5809H102.132L102.392 25.0066H99.614Z" fill="black"/>
<path id="Vector_11" d="M110.925 27.8383C115.157 27.8383 118.142 24.9552 118.142 20.888C118.142 16.8207 115.157 13.9377 110.925 13.9377C106.692 13.9377 103.707 16.8207 103.707 20.888C103.707 24.9552 106.692 27.8383 110.925 27.8383ZM110.925 25.1354C108.484 25.1354 106.822 23.4107 106.822 20.888C106.822 18.3653 108.484 16.6406 110.925 16.6406C113.365 16.6406 115.026 18.3653 115.026 20.888C115.026 23.4107 113.365 25.1354 110.925 25.1354Z" fill="black"/>
<path id="Vector_12" d="M123.724 27.5808V19.6781C123.724 17.9791 124.555 17.0266 126.372 17.0266H128.086L127.826 14.195H127.255C125.671 14.195 124.451 14.6326 123.542 16.1257L122.971 14.195H120.738V27.5808H123.724Z" fill="black"/>
<path id="Vector_13" d="M142.778 20.7335C142.778 16.8722 139.87 13.9377 135.768 13.9377C131.666 13.9377 128.757 16.8465 128.757 20.888C128.757 24.9295 131.666 27.8383 135.768 27.8383C138.572 27.8383 141.22 26.5255 142.233 23.977L139.428 23.5137C138.78 24.4661 137.533 25.1354 135.95 25.1354C133.665 25.1354 132.159 23.7453 131.873 21.686H142.726C142.752 21.4028 142.778 21.0939 142.778 20.7335ZM135.768 16.5119C137.637 16.5119 139.039 17.696 139.532 19.3692H132.055C132.548 17.6445 133.95 16.5119 135.768 16.5119Z" fill="black"/>
</g>
</svg>
