<svg width="56" height="25" viewBox="0 0 56 25" fill="none" xmlns="http://www.w3.org/2000/svg">
<path id="Subtract" d="M55.8657 11.6474C55.7673 11.4289 54.7569 10.3663 53.6203 9.28594C48.1279 4.06565 44.5226 0.737196 44.0491 0.449607C42.6912 -0.37487 41.0417 0.518192 41.0417 2.07797C41.0417 2.38943 41.1514 2.82403 41.2909 3.0648C41.4281 3.30138 42.4187 4.32689 43.4925 5.34375C44.5663 6.36047 46.2049 7.91303 47.1338 8.79377L48.8227 10.3951L12.0137 10.4053L7.69313 5.68772C5.31692 3.09299 3.22071 0.869642 3.035 0.746895C2.50519 0.396882 1.44232 0.369345 0.932026 0.692474C0.0031013 1.28077 -0.266873 2.41762 0.282963 3.4253C0.443832 3.72023 2.3165 5.8586 4.44445 8.17728C6.57226 10.4958 8.31332 12.4427 8.31332 12.5036C8.31332 12.5644 6.57226 14.5113 4.44445 16.8299C2.3165 19.1486 0.443831 21.2869 0.282962 21.5819C-0.266873 22.5895 0.00310032 23.7264 0.932025 24.3147C1.44232 24.6378 2.50519 24.6103 3.035 24.2603C3.22071 24.1375 5.31692 21.9142 7.69313 19.3194L12.0137 14.6018L48.8227 14.6121L47.1338 16.2134C46.2049 17.0941 44.5663 18.6467 43.4925 19.6634C42.4187 20.6803 41.4281 21.7058 41.2909 21.9424C41.1514 22.1831 41.0417 22.6177 41.0417 22.9292C41.0417 24.5186 42.692 25.3828 44.0927 24.527C44.6877 24.1635 55.247 14.2708 55.6911 13.6608C56.0131 13.2186 56.1036 12.1757 55.8657 11.6474Z" fill="#E8A877"/>
</svg>
