<svg width="48" height="48" viewBox="0 0 48 48" fill="none" xmlns="http://www.w3.org/2000/svg">
<g id="Telegram_logo 3">
<rect width="48" height="48" rx="24" fill="url(#paint0_linear_91_767)"/>
<path id="Path-3" fill-rule="evenodd" clip-rule="evenodd" d="M10.8638 23.7468C17.8603 20.6985 22.5257 18.6889 24.86 17.718C31.5251 14.9458 32.91 14.4642 33.8127 14.4483C34.0113 14.4448 34.4552 14.494 34.7427 14.7273C34.9855 14.9243 35.0523 15.1905 35.0843 15.3773C35.1163 15.5641 35.1561 15.9896 35.1244 16.3221C34.7633 20.117 33.2004 29.3264 32.4053 33.5769C32.0689 35.3754 31.4065 35.9784 30.7652 36.0374C29.3714 36.1657 28.3131 35.1163 26.9632 34.2315C24.8509 32.8468 23.6576 31.9849 21.6072 30.6337C19.2377 29.0722 20.7738 28.214 22.1242 26.8114C22.4776 26.4443 28.6183 20.8588 28.7372 20.3521C28.7521 20.2888 28.7659 20.0526 28.6255 19.9278C28.4852 19.8031 28.2781 19.8457 28.1286 19.8797C27.9168 19.9277 24.5423 22.1581 18.0053 26.5708C17.0475 27.2285 16.1799 27.549 15.4026 27.5322C14.5457 27.5137 12.8973 27.0477 11.6719 26.6494C10.1689 26.1608 8.97432 25.9025 9.07834 25.0727C9.13252 24.6406 9.72767 24.1986 10.8638 23.7468Z" fill="#CECDC8"/>
</g>
<defs>
<linearGradient id="paint0_linear_91_767" x1="24" y1="48" x2="24" y2="0" gradientUnits="userSpaceOnUse">
<stop stop-color="#2F343B"/>
<stop offset="1" stop-color="#3B4249"/>
</linearGradient>
</defs>
</svg>
