<svg width="30" height="30" viewBox="0 0 30 30" fill="none" xmlns="http://www.w3.org/2000/svg">
<g id="Logo 1" clip-path="url(#clip0_1_309)">
<g id="Artboard">
<path id="Oval" d="M15 30C23.2843 30 30 23.2843 30 15C30 6.71573 23.2843 0 15 0C6.71573 0 0 6.71573 0 15C0 23.2843 6.71573 30 15 30Z" fill="url(#paint0_linear_1_309)"/>
<path id="Path-3" fill-rule="evenodd" clip-rule="evenodd" d="M6.78977 14.8417C11.1626 12.9365 14.0785 11.6805 15.5374 11.0737C19.7031 9.34105 20.5687 9.04007 21.1329 9.03014C21.2569 9.02795 21.5344 9.0587 21.7141 9.20453C21.8659 9.32767 21.9076 9.494 21.9276 9.61075C21.9476 9.72749 21.9725 9.99344 21.9527 10.2012C21.7269 12.5731 20.7502 18.329 20.2532 20.9855C20.043 22.1096 19.629 22.4865 19.2281 22.5233C18.3571 22.6035 17.6956 21.9477 16.8519 21.3946C15.5317 20.5292 14.7859 19.9905 13.5044 19.146C12.0235 18.1701 12.9835 17.6337 13.8275 16.7571C14.0484 16.5277 17.8864 13.0367 17.9607 12.72C17.9699 12.6804 17.9786 12.5328 17.8909 12.4548C17.8032 12.3769 17.6737 12.4035 17.5803 12.4247C17.4479 12.4548 15.3389 13.8488 11.2532 16.6067C10.6546 17.0178 10.1123 17.2181 9.62652 17.2076C9.09094 17.196 8.0607 16.9048 7.29483 16.6558C6.35545 16.3504 5.60886 16.189 5.67387 15.6704C5.70773 15.4003 6.0797 15.1241 6.78977 14.8417Z" fill="white"/>
</g>
</g>
<defs>
<linearGradient id="paint0_linear_1_309" x1="1500" y1="0" x2="1500" y2="2977.75" gradientUnits="userSpaceOnUse">
<stop stop-color="#2AABEE"/>
<stop offset="1" stop-color="#229ED9"/>
</linearGradient>
<clipPath id="clip0_1_309">
<rect width="30" height="30" fill="white"/>
</clipPath>
</defs>
</svg>