<svg width="139" height="36" viewBox="0 0 139 36" fill="none" xmlns="http://www.w3.org/2000/svg">
<g id="VK_Play_logo">
<g id="Clip path group">
<mask id="mask0_1_224" style="mask-type:luminance" maskUnits="userSpaceOnUse" x="0" y="0" width="139" height="36">
<g id="a">
<path id="Vector" d="M0 0H138.481V36H0V0Z" fill="white"/>
</g>
</mask>
<g mask="url(#mask0_1_224)">
<g id="Group">
<path id="Vector_2" d="M58.5193 27.0332H53.9978L47.5632 8.70369H50.8966L56.0393 23.8089H56.5558L61.8793 8.70462H65.1613L58.5202 27.0342L58.5193 27.0332ZM73.7713 17.544L82.1445 27.0332H78.0616L71.2389 19.1815H70.4636V27.0332H67.3624V8.70369H70.4636V16.1658H71.2132L77.6735 8.70369H81.4977L73.7722 17.5431L73.7713 17.544ZM89.5205 27.0332V8.70369H95.9807C97.2212 8.70369 98.3406 8.97231 99.3407 9.50954C100.356 10.0302 101.149 10.7575 101.718 11.6935C102.286 12.6295 102.57 13.6957 102.57 14.892C102.57 16.0698 102.286 17.136 101.718 18.0895C101.149 19.0255 100.356 19.7622 99.3407 20.2994C98.3406 20.8191 97.2212 21.0794 95.9807 21.0794H92.6217V27.0332H89.5205ZM95.9807 18.2197C96.9974 18.2197 97.8158 17.916 98.436 17.3095C99.0728 16.6855 99.3921 15.8788 99.3921 14.8911C99.3921 13.9034 99.0728 13.1058 98.436 12.5003C97.8158 11.8754 96.9974 11.5634 95.9807 11.5634H92.6217V18.2188H95.9807V18.2197ZM108.009 27.0332H105.038V8.70369H108.009V27.0332ZM116.974 13.2535C118.697 13.2535 120.049 13.8 121.031 14.8911C122.03 15.9665 122.53 17.4831 122.53 19.4418V27.0332H120.334L119.713 24.9009C119.334 25.5425 118.774 26.1055 118.033 26.5911C117.293 27.0591 116.414 27.2926 115.397 27.2926C114.502 27.2926 113.692 27.1108 112.969 26.7471C112.284 26.4034 111.71 25.8714 111.314 25.2129C110.918 24.5548 110.72 23.8098 110.72 22.9772C110.72 21.6942 111.22 20.6723 112.219 19.9098C113.236 19.1298 114.708 18.7394 116.638 18.7394H119.533C119.463 17.8385 119.188 17.1277 118.705 16.6071C118.24 16.0698 117.611 15.8012 116.819 15.8012C116.181 15.8012 115.63 15.9582 115.165 16.2692C114.7 16.5812 114.355 16.9625 114.131 17.4138L111.391 16.9458C111.719 15.8012 112.391 14.9003 113.407 14.2412C114.441 13.5831 115.63 13.2535 116.974 13.2535ZM116.096 24.7708C117.129 24.7708 117.965 24.4329 118.602 23.7572C119.239 23.0815 119.558 22.188 119.558 21.0794H116.741C114.726 21.0794 113.717 21.6683 113.717 22.8471C113.717 23.4369 113.933 23.904 114.364 24.2511C114.794 24.5982 115.372 24.7708 116.096 24.7708ZM134.811 13.5138H137.834L132.33 28.7234C131.865 30.0055 131.262 30.9332 130.521 31.5046C129.798 32.0769 128.824 32.3631 127.601 32.3631H125.56L125.301 29.6326H127.808C128.307 29.6326 128.687 29.52 128.944 29.2948C129.221 29.0871 129.453 28.7142 129.643 28.1769L129.798 27.7615L123.827 13.5138H127.007L130.96 23.2634H131.374L134.811 13.5138Z" fill="black"/>
<path id="Vector_3" d="M18.6431 0C26.7301 0 30.7736 0 33.2784 2.52C35.7833 5.04 35.7833 9.108 35.7833 17.244V18.756C35.7833 26.892 35.7833 30.96 33.2784 33.48C30.7736 36 26.7301 36 18.6431 36H17.1402C9.05316 36 5.00966 36 2.50483 33.48C0 30.96 0 26.892 0 18.7569V17.2431C0 9.10708 0 5.04 2.50483 2.52C5.00966 0 9.05316 0 17.1402 0L18.6431 0Z" fill="#0077FF"/>
<path id="Vector_4" d="M0.10735 10.1169C0 12.0591 0 14.4 0 17.2431V18.7551C0 20.9151 0 22.752 0.0357833 24.3711C4.72339 26.6769 11.0212 28.08 17.8916 28.08C24.762 28.08 31.0599 26.6769 35.7475 24.372C35.7833 22.752 35.7833 20.88 35.7833 18.7569V17.2449C35.7833 14.4018 35.7833 12.0609 35.6759 10.0818H0.10735V10.1169Z" fill="#0009B4"/>
<path id="Vector_5" d="M24.874 21.6092C26.7539 21.6092 28.278 20.076 28.278 18.1846C28.278 16.2933 26.7539 14.76 24.874 14.76C22.994 14.76 21.47 16.2933 21.47 18.1846C21.47 20.076 22.994 21.6092 24.874 21.6092Z" stroke="white" stroke-width="3.897"/>
<path id="Vector_6" d="M15.0291 22.32L7.15674 14.4M15.0291 14.4L7.15674 22.32" stroke="white" stroke-width="3.897"/>
</g>
</g>
</g>
</g>
</svg>
