<svg width="162" height="29" viewBox="0 0 162 29" fill="none" xmlns="http://www.w3.org/2000/svg">
<g id="VK Text Logo" clip-path="url(#clip0_1_287)">
<g id="Clip path group">
<mask id="mask0_1_287" style="mask-type:luminance" maskUnits="userSpaceOnUse" x="0" y="0" width="162" height="29">
<g id="clip0_2_4">
<path id="Vector" d="M161.859 0H0.140869V28.1739H161.859V0Z" fill="white"/>
</g>
</mask>
<g mask="url(#mask0_1_287)">
<g id="Group">
<path id="Vector_2" d="M49.1134 17.4796C49.1134 19.6184 47.1221 21.1673 44.3193 21.1673H37.7554V7.8916H44.0982C46.8271 7.8916 48.7446 9.36668 48.7446 11.4318C48.7446 12.8331 48.007 13.7181 46.9009 14.2344C48.0808 14.677 49.1134 15.857 49.1134 17.4796ZM40.6316 10.3255V13.2019H44.0244C45.0569 13.2019 45.7207 12.6118 45.7207 11.8006C45.7207 10.9893 44.9831 10.3255 44.0244 10.3255H40.6316ZM44.3193 18.7334C45.4257 18.7334 46.2371 18.0696 46.2371 17.1108C46.2371 16.152 45.4995 15.4882 44.3193 15.4882H40.6316V18.7334H44.3193Z" fill="white"/>
<path id="Vector_3" d="M59.9552 21.0935L55.3825 15.857H54.645V21.0935H51.6946V7.8916H54.645V12.9806H55.3825L59.8075 7.8916H63.2741L57.7424 14.2344L63.7902 21.0935H59.9552Z" fill="white"/>
<path id="Vector_4" d="M63.7905 14.5295C63.7905 10.5468 66.7406 7.67041 70.8706 7.67041C75.0009 7.67041 77.951 10.5468 77.951 14.5295C77.951 18.5122 75.0009 21.3886 70.8706 21.3886C66.7406 21.3886 63.7905 18.5122 63.7905 14.5295ZM74.8536 14.5295C74.8536 12.0219 73.2308 10.3255 70.8706 10.3255C68.5105 10.3255 66.888 12.0219 66.888 14.5295C66.888 17.0371 68.5105 18.7335 70.8706 18.7335C73.2308 18.7335 74.8536 17.0371 74.8536 14.5295Z" fill="white"/>
<path id="Vector_5" d="M89.2356 7.8916H92.1857V21.0935H89.2356V15.7833H83.3351V21.0935H80.385V7.8916H83.3351V13.1281H89.2356V7.8916Z" fill="white"/>
<path id="Vector_6" d="M98.5285 21.0935V10.5467H93.9556V7.8916H105.978V10.5467H101.405V21.0935H98.5285Z" fill="white"/>
<path id="Vector_7" d="M118.663 13.7182V21.0936H116.524L115.934 19.0285C115.27 20.1348 113.869 21.3886 111.73 21.3886C109.075 21.3886 107.157 19.6185 107.157 17.1847C107.157 14.7508 109.075 13.0544 112.984 13.0544H115.86C115.713 11.3581 114.828 10.1781 113.205 10.1781C111.878 10.1781 110.993 10.9156 110.55 11.7269L107.895 11.2844C108.559 8.99799 110.845 7.67041 113.353 7.67041C116.598 7.67041 118.663 9.88302 118.663 13.7182ZM115.787 15.3408H113.058C110.845 15.3408 110.108 16.0784 110.108 17.0371C110.108 18.1434 110.993 18.881 112.468 18.881C114.385 18.881 115.787 17.4797 115.787 15.3408Z" fill="white"/>
<path id="Vector_8" d="M130.021 21.0935L125.449 15.857H124.711V21.0935H121.761V7.8916H124.711V12.9806H125.449L129.874 7.8916H133.34L127.809 14.2344L133.857 21.0935H130.021Z" fill="white"/>
<path id="Vector_9" d="M139.167 21.0935V10.5467H134.594V7.8916H146.616V10.5467H142.043V21.0935H139.167Z" fill="white"/>
<path id="Vector_10" d="M161.366 15.3408H150.746C151.041 17.4059 152.516 18.7335 154.729 18.7335C156.278 18.7335 157.457 18.0697 158.121 17.1109L160.85 17.5534C159.891 20.061 157.31 21.3886 154.507 21.3886C150.525 21.3886 147.648 18.5122 147.648 14.5295C147.648 10.5468 150.525 7.67041 154.507 7.67041C158.49 7.67041 161.366 10.5468 161.366 14.382C161.44 14.7508 161.366 15.0458 161.366 15.3408ZM150.967 13.0544H158.269C157.752 11.4319 156.425 10.2518 154.581 10.2518C152.811 10.1781 151.41 11.3581 150.967 13.0544Z" fill="white"/>
<path id="Vector_11" d="M0.140869 13.5235C0.140869 7.14845 0.140869 3.96094 2.12134 1.98047C4.10181 0 7.28932 0 13.6643 0H14.7913C21.1663 0 24.3538 0 26.3343 1.98047C28.3148 3.96094 28.3148 7.14845 28.3148 13.5235V14.6504C28.3148 21.0255 28.3148 24.213 26.3343 26.1935C24.3538 28.1739 21.1663 28.1739 14.7913 28.1739H13.6643C7.28932 28.1739 4.10181 28.1739 2.12134 26.1935C0.140869 24.213 0.140869 21.0255 0.140869 14.6504V13.5235Z" fill="#0077FF"/>
<path id="Vector_12" d="M15.1317 20.2971C8.71043 20.2971 5.04785 15.8949 4.89526 8.5697H8.11177C8.21742 13.9462 10.5887 16.2236 12.4669 16.6932V8.5697H15.4957V13.2066C17.3505 13.0071 19.299 10.894 19.9564 8.5697H22.9851C22.4804 11.4341 20.3673 13.5471 18.8647 14.4158C20.3673 15.1201 22.774 16.9632 23.6896 20.2971H20.3556C19.6395 18.0666 17.8553 16.341 15.4957 16.1062V20.2971H15.1317Z" fill="white"/>
</g>
</g>
</g>
</g>
<defs>
<clipPath id="clip0_1_287">
<rect width="162" height="28.1739" fill="white"/>
</clipPath>
</defs>
</svg>
